<svg xmlns="http://www.w3.org/2000/svg" width="24" height="24" fill="currentColor" viewBox="0 0 24 24">
  <path fill="#08090D" d="M21 12a9 9 0 1 0-15.86 5.822A4.99 4.99 0 0 1 9 16h6a4.99 4.99 0 0 1 3.86 1.822A8.961 8.961 0 0 0 21 12ZM9 18c-.98 0-1.851.47-2.4 1.2A8.96 8.96 0 0 0 12 21c2.026 0 3.894-.67 5.398-1.8A2.994 2.994 0 0 0 15 18H9Zm6-8.5a3 3 0 1 0-6 0 3 3 0 0 0 6 0Zm8 2.5a10.971 10.971 0 0 1-3.69 8.216A10.955 10.955 0 0 1 12 23a10.956 10.956 0 0 1-7.361-2.827A10.972 10.972 0 0 1 1 12C1 5.925 5.925 1 12 1s11 4.925 11 11Zm-6-2.5a5 5 0 1 1-10 0 5 5 0 0 1 10 0Z"/>
</svg>
