<svg xmlns="http://www.w3.org/2000/svg" width="24" height="24" fill="currentColor" viewBox="0 0 24 24">
  <path fill-rule="evenodd" d="M11.824 21.5c-.278 0-.558-.012-.84-.035-4.706-.394-8.554-4.24-8.949-8.946a9.86 9.86 0 0 1 3.562-8.451.613.613 0 0 1 .776.945 8.635 8.635 0 0 0-3.118 7.404c.345 4.118 3.713 7.484 7.831 7.829 4.133.344 7.866-2.253 9.003-6.143a7.627 7.627 0 0 1-4.456 1.432h-.008c-4.224 0-7.66-3.436-7.66-7.66a7.629 7.629 0 0 1 1.431-4.463c-.256.076-.51.163-.757.262a.613.613 0 0 1-.454-1.136 9.798 9.798 0 0 1 1.776-.52.926.926 0 0 1 .995.458c.2.353.151.794-.12 1.097a6.41 6.41 0 0 0-1.648 4.3 6.445 6.445 0 0 0 6.438 6.44h.006a6.412 6.412 0 0 0 4.295-1.647.945.945 0 0 1 1.097-.122.937.937 0 0 1 .459.995c-.898 4.663-4.97 7.96-9.659 7.961Z" clip-rule="evenodd"/>
</svg>
