<svg xmlns="http://www.w3.org/2000/svg" width="24" height="24" fill="currentColor" viewBox="0 0 24 24">
  <path fill="currentColor" fill-rule="evenodd" d="M12 1.77C6.35 1.77 1.77 6.35 1.77 12S6.35 22.23 12 22.23 22.23 17.65 22.23 12 17.65 1.77 12 1.77Zm-.958 3.896c.245-.261.566-.395.958-.409.392.014.713.148.958.41.258.275.387.66.387 1.153 0 .362-.508 7.023-.632 7.293-.125.27-.348.406-.669.406-.016 0-.029-.005-.044-.005-.016 0-.029.005-.045.005-.32 0-.543-.135-.668-.405s-.632-6.932-.632-7.294c0-.493.129-.878.387-1.154Zm1.902 12.72a1.37 1.37 0 0 1-.935.357 1.407 1.407 0 0 1-.95-.353c-.27-.234-.404-.562-.404-.984 0-.368.129-.682.387-.94a1.29 1.29 0 0 1 .949-.388c.374 0 .693.13.958.388.258.244.402.585.396.94 0 .416-.133.742-.4.98Z" clip-rule="evenodd"/>
</svg>
