<svg xmlns="http://www.w3.org/2000/svg" width="24" height="24" fill="currentColor" viewBox="0 0 24 24">
  <g clip-path="url(#a)">
    <path fill="currentColor" fill-rule="evenodd" d="M19.887 21H4.113a2.25 2.25 0 0 1-1.946-3.383l.018-.032.001-.002 7.867-13.467a2.255 2.255 0 0 1 3.893 0l7.887 13.5A2.249 2.249 0 0 1 19.887 21Zm-7.863-2.4a1.14 1.14 0 1 1 0-2.28 1.14 1.14 0 0 1 0 2.28ZM13.16 8.423l-.377 6.195c0 .42-.34.577-.76.577s-.76-.157-.76-.577l-.378-6.209a1.14 1.14 0 1 1 2.275.014Z" clip-rule="evenodd"/>
    <path fill="#856A00" fill-rule="evenodd" d="M12.024 18.6a1.14 1.14 0 1 1 0-2.28 1.14 1.14 0 0 1 0 2.28ZM13.16 8.423l-.377 6.195c0 .42-.34.577-.76.577s-.76-.157-.76-.577l-.378-6.209a1.14 1.14 0 1 1 2.275.014Z" clip-rule="evenodd"/>
  </g>
  <defs>
    <clipPath id="a">
      <path fill="currentColor" d="M0 0h24v24H0z"/>
    </clipPath>
  </defs>
</svg>
