<svg width="56" height="56" viewBox="0 0 56 56" fill="none" xmlns="http://www.w3.org/2000/svg">
<g clip-path="url(#clip0_6393_382)">
<path d="M52 4H4V52H52V4Z" fill="#FF7900"/>
<path d="M22.8302 47.3501C22.1789 47.7856 21.4123 48.0168 20.6288 48.0139C19.3825 48.0139 18.6459 47.1841 18.6459 46.0733C18.6459 44.578 20.0209 43.7855 22.8539 43.4655V43.0946C22.8539 42.6086 22.4847 42.3275 21.804 42.3275C21.4916 42.3187 21.1815 42.3836 20.8988 42.5169C20.6161 42.6501 20.3687 42.848 20.1767 43.0946L18.9913 42.4173C19.6145 41.5469 20.5639 41.1123 21.8396 41.1134C23.5803 41.1134 24.5489 41.867 24.5489 43.0946C24.5489 43.0946 24.5489 47.9241 24.5489 47.9376H22.991L22.8302 47.3501ZM20.3663 45.9446C20.3663 46.3933 20.6491 46.8133 21.1588 46.8133C21.7126 46.8133 22.2493 46.583 22.7878 46.1088V44.5272C21.1453 44.7355 20.3663 45.1572 20.3663 45.948V45.9446Z" fill="white"/>
<path d="M25.9358 41.4351L27.3904 41.2336L27.5496 42.0261C28.3708 41.425 29.0228 41.1049 29.8441 41.1049C31.2191 41.1049 31.9269 41.8348 31.9269 43.2792V47.9309H30.1709V43.5857C30.1709 42.7678 29.9575 42.4003 29.3242 42.4003C28.7993 42.4003 28.276 42.6425 27.68 43.142V47.9342H25.9358V41.4351Z" fill="white"/>
<path d="M43.5722 48.0579C41.6028 48.0579 40.4276 46.7929 40.4276 44.5949C40.4276 42.397 41.6129 41.1049 43.5434 41.1049C45.4738 41.1049 46.6168 42.3326 46.6168 44.5052C46.6168 44.6203 46.6033 44.7355 46.6033 44.8439H42.1548C42.1684 46.1088 42.6933 46.7472 43.7279 46.7472C44.3934 46.7472 44.832 46.4796 45.2435 45.9005L46.5321 46.6151C45.9649 47.56 44.9455 48.0579 43.5722 48.0579ZM44.8896 43.7127C44.8896 42.8186 44.3816 42.2937 43.5434 42.2937C42.7509 42.2937 42.2547 42.8017 42.1887 43.7127H44.8896Z" fill="white"/>
<path d="M9.90816 48.1307C8.16908 48.1307 6.60272 47.0232 6.60272 44.6051C6.60272 42.187 8.16908 41.0846 9.90816 41.0846C11.6472 41.0846 13.2136 42.1937 13.2136 44.6102C13.2136 47.0266 11.6456 48.1307 9.90816 48.1307ZM9.90816 42.5663C8.59581 42.5663 8.35196 43.7516 8.35196 44.5983C8.35196 45.445 8.59581 46.6388 9.90816 46.6388C11.2205 46.6388 11.4644 45.4535 11.4644 44.5983C11.4644 43.7432 11.2205 42.5663 9.90816 42.5663Z" fill="white"/>
<path d="M14.4193 41.2539H16.0906V42.0396C16.318 41.7681 16.5986 41.5461 16.9153 41.3874C17.2319 41.2286 17.5777 41.1365 17.9313 41.1168C18.0071 41.1148 18.083 41.1188 18.1582 41.1286V42.7779H18.0735C17.3081 42.7779 16.4716 42.8965 16.2108 43.4909V47.9342H14.4193V41.2539Z" fill="white"/>
<path d="M36.2314 46.5034C37.5658 46.4932 37.6776 45.1368 37.6776 44.2495C37.6776 43.2064 37.1696 42.3563 36.2196 42.3563C35.588 42.3563 34.8835 42.8169 34.8835 44.3223C34.8835 45.1487 34.9411 46.5118 36.2314 46.5034ZM39.3675 41.2336V47.5583C39.3675 48.6759 39.2829 50.5132 36.0977 50.5336C34.7853 50.5336 33.5678 50.0171 33.3239 48.869L35.0596 48.5896C35.1324 48.9181 35.3323 49.2466 36.3161 49.2466C37.2288 49.2466 37.6708 48.8097 37.6708 47.7649V46.9877L37.6471 46.9639C37.3677 47.4618 36.9426 47.9359 35.9215 47.9359C34.3653 47.9359 33.1377 46.8556 33.1377 44.5966C33.1377 42.3631 34.4026 41.1134 35.8233 41.1117C37.156 41.1117 37.6505 41.7162 37.7639 42.0363H37.7436L37.8875 41.237L39.3675 41.2336Z" fill="white"/>
<path d="M47.3077 39.017H46.6168V40.9305H46.251V39.017H45.5602V38.7224H47.3077V39.017ZM50.1864 40.9305H49.8223V39.0864H49.8105L49.0874 40.9305H48.8571L48.1341 39.0864H48.1239V40.9305H47.7598V38.7291H48.322L48.9807 40.4056L49.6293 38.7291H50.1864V40.9305Z" fill="white"/>
</g>
<defs>
<clipPath id="clip0_6393_382">
<rect width="48" height="48" fill="white" transform="translate(4 4)"/>
</clipPath>
</defs>
</svg>
