<svg width="64" height="64" viewBox="0 0 64 64" fill="none" xmlns="http://www.w3.org/2000/svg">
<path fill-rule="evenodd" clip-rule="evenodd" d="M40.9377 45.9318C40.0098 46.8618 38.5058 46.8618 37.5772 45.9326C37.5772 45.9326 37.5763 45.9326 37.5763 45.9318L32.001 40.3459L26.4248 45.9318C25.5042 46.8691 23.9987 46.8822 23.0635 45.9603C22.1275 45.0376 22.1145 43.5314 23.0358 42.5933C23.0456 42.5843 23.0545 42.5746 23.0643 42.564L28.6397 36.9781L23.2625 31.5907C22.3395 30.655 22.3501 29.1473 23.2837 28.2238C24.2091 27.3084 25.6976 27.3084 26.6238 28.2229L32.001 33.6111L37.3781 28.2229C38.2987 27.2848 39.8034 27.2709 40.7402 28.192C41.677 29.1139 41.6908 30.6208 40.7711 31.559L35.3623 36.9781L40.9377 42.564C41.8655 43.4948 41.8655 45.0018 40.9377 45.9318ZM57.212 46.607L36.9913 11.8736C35.3858 9.11357 31.8498 8.17947 29.0938 9.78648C28.2309 10.2901 27.5135 11.0094 27.0106 11.8736L6.83781 46.5215L6.83537 46.5248L6.78825 46.607C5.17869 49.3686 6.11144 52.9121 8.86825 54.524C9.75144 55.0399 10.7565 55.3117 11.7786 55.3125H52.2224C55.4147 55.3109 58.0017 52.7185 58.0001 49.5216C57.9993 48.4971 57.7279 47.4914 57.212 46.607Z" fill="black"/>
</svg>
