<svg width="12" height="12" viewBox="0 0 12 12" fill="none" xmlns="http://www.w3.org/2000/svg">
<path fill-rule="evenodd" clip-rule="evenodd" d="M7.67578 8.61221C7.5018 8.78659 7.21981 8.78659 7.04569 8.61236C7.04569 8.61236 7.04553 8.61236 7.04553 8.61221L6.00015 7.56486L4.95462 8.61221C4.78201 8.78796 4.49972 8.79041 4.32437 8.61755C4.14887 8.44454 4.14643 8.16215 4.31919 7.98624C4.32102 7.98456 4.32269 7.98273 4.32452 7.98075L5.3699 6.93339L4.36169 5.92326C4.18863 5.74782 4.19061 5.46511 4.36566 5.29195C4.53917 5.12032 4.81827 5.12032 4.99194 5.2918L6.00015 6.30208L7.00836 5.2918C7.18097 5.11589 7.46311 5.1133 7.63876 5.286C7.81441 5.45886 7.817 5.74141 7.64455 5.91731L6.6304 6.93339L7.67578 7.98075C7.84975 8.15528 7.84975 8.43783 7.67578 8.61221ZM10.7272 8.73881L6.93584 2.22629C6.63481 1.70879 5.97181 1.53365 5.45506 1.83497C5.29327 1.9294 5.15875 2.06427 5.06445 2.22629L1.28206 8.72279L1.2816 8.7234L1.27277 8.73881C0.970973 9.25661 1.14586 9.92103 1.66277 10.2233C1.82836 10.32 2.01681 10.3709 2.20846 10.3711H9.79167C10.3902 10.3708 10.8753 9.88472 10.875 9.28529C10.8748 9.09321 10.824 8.90464 10.7272 8.73881Z" fill="white"/>
</svg>
