<svg width="12" height="12" viewBox="0 0 12 12" fill="none" xmlns="http://www.w3.org/2000/svg">
<path fill-rule="evenodd" clip-rule="evenodd" d="M7.43385 9.15441H4.853V8.85917L4.91363 8.85734C5.09202 8.85155 5.22456 8.80082 5.30774 8.70668C5.3373 8.67255 5.38757 8.55631 5.38757 8.1657V5.55956C5.38757 5.18799 5.33577 5.04799 5.2922 4.99589C5.23081 4.92261 5.10269 4.87949 4.91165 4.86792L4.853 4.86441V4.56612H6.86028V8.1657C6.86028 8.53742 6.95732 8.67742 7.00059 8.72937C7.06198 8.80265 7.1805 8.84576 7.37489 8.85734L7.43385 8.86069V9.15441ZM6.00001 2.27197C6.47517 2.27197 6.86029 2.65724 6.86029 3.1324C6.86029 3.60741 6.47517 3.99254 6.00001 3.99254C5.52485 3.99254 5.13957 3.60741 5.13957 3.1324C5.13957 2.65724 5.52485 2.27197 6.00001 2.27197ZM6 1.125C3.30763 1.125 1.125 3.30763 1.125 6C1.125 8.69237 3.30763 10.875 6 10.875C8.69237 10.875 10.875 8.69237 10.875 6C10.875 3.30763 8.69237 1.125 6 1.125Z" fill="black"/>
</svg>
