<svg width="64" height="64" viewBox="0 0 64 64" fill="none" xmlns="http://www.w3.org/2000/svg">
<path fill-rule="evenodd" clip-rule="evenodd" d="M39.6472 48.8235H25.8826V47.2489L26.206 47.2392C27.1575 47.2083 27.8643 46.9377 28.308 46.4356C28.4656 46.2536 28.7337 45.6337 28.7337 43.5504V29.651C28.7337 27.6693 28.4575 26.9226 28.2251 26.6447C27.8976 26.2539 27.2143 26.024 26.1955 25.9622L25.8826 25.9435V24.3527H36.5881V43.5504C36.5881 45.5329 37.1057 46.2796 37.3365 46.5567C37.6639 46.9475 38.296 47.1774 39.3328 47.2392L39.6472 47.257V48.8235ZM32 12.1172C34.5342 12.1172 36.5882 14.172 36.5882 16.7062C36.5882 19.2395 34.5342 21.2935 32 21.2935C29.4659 21.2935 27.411 19.2395 27.411 16.7062C27.411 14.172 29.4659 12.1172 32 12.1172ZM32 6C17.6407 6 6 17.6407 6 32C6 46.3593 17.6407 58 32 58C46.3593 58 58 46.3593 58 32C58 17.6407 46.3593 6 32 6Z" fill="black"/>
</svg>
