<svg width="12" height="12" viewBox="0 0 12 12" fill="none" xmlns="http://www.w3.org/2000/svg">
<path fill-rule="evenodd" clip-rule="evenodd" d="M8.68016 4.37757L5.60632 8.2081C5.58484 8.23492 5.56031 8.25929 5.53365 8.28092C5.32646 8.4482 5.0233 8.4156 4.85633 8.2081L3.31949 6.29269C3.16668 6.10241 3.18192 5.82712 3.35529 5.65513L3.54739 5.46363C3.72518 5.28676 4.00869 5.27579 4.19942 5.4388L5.13573 6.4726L7.97709 3.72935C8.0653 3.64678 8.18154 3.60047 8.30219 3.60001C8.56773 3.59833 8.78421 3.81268 8.78573 4.07867C8.78573 4.18745 8.74841 4.29302 8.68016 4.37757ZM6 1.125C3.30763 1.125 1.125 3.30763 1.125 6C1.125 8.69237 3.30763 10.875 6 10.875C8.69237 10.875 10.875 8.69237 10.875 6C10.875 3.30763 8.69237 1.125 6 1.125Z" fill="black"/>
</svg>
