<svg width="64" height="64" viewBox="0 0 64 64" fill="none" xmlns="http://www.w3.org/2000/svg">
<path fill-rule="evenodd" clip-rule="evenodd" d="M46.2942 23.3471L29.9004 43.7766C29.7858 43.9196 29.655 44.0496 29.5128 44.1649C28.4078 45.0571 26.7909 44.8832 25.9004 43.7766L17.7039 33.561C16.889 32.5462 16.9702 31.078 17.8949 30.1607L18.9194 29.1394C19.8676 28.1961 21.3797 28.1376 22.3969 29.0069L27.3905 34.5206L42.5445 19.8899C43.0149 19.4495 43.6349 19.2025 44.2784 19.2001C45.6945 19.1911 46.8491 20.3343 46.8572 21.7529C46.8572 22.3331 46.6582 22.8961 46.2942 23.3471ZM32 6C17.6407 6 6 17.6407 6 32C6 46.3593 17.6407 58 32 58C46.3593 58 58 46.3593 58 32C58 17.6407 46.3593 6 32 6Z" fill="black"/>
</svg>
