<svg width="96" height="96" viewBox="0 0 96 96" xmlns="http://www.w3.org/2000/svg"><path fill="#000000" stroke-width="0px" d="M725,400h-25v-25c0-110-90-200-200-200s-200,90-200,200v25h-100v450c0,41.42,33.58,75,75,75h525v-450c0-41.42-33.58-75-75-75ZM374.99,375c0-69.04,55.96-125,125-125s125,55.96,125,125v25h-250v-25ZM565.5,636.55c-6.78,12.14-16.8,22.16-28.94,28.94h-.01s13.45,134.51,13.45,134.51h-100l13.46-134.51c-36.17-20.19-49.13-65.87-28.94-102.04,20.19-36.17,65.87-49.13,102.04-28.94,36.17,20.19,49.13,65.87,28.94,102.04Z" transform="scale(.096)"/></svg>