<svg width="96" height="96" viewBox="0 0 96 96" xmlns="http://www.w3.org/2000/svg"><g transform="scale(.096)"><path id="Hide" fill="#000000" fill-rule="evenodd" d="M809.208,350.568l-43.17,43.17c47.061,31.481,87.2,69.038,113.545,105.978-29.782,41.6-77.4,84.079-132.916,117.815a543.936,543.936,0,0,1-60.236,31.655A240.332,240.332,0,0,0,728.646,431.13l-50.895,50.895q0.855,8.747.869,17.722a179.994,179.994,0,0,1-180,180q-8.971,0-17.722-.869L416.177,743.6a429.382,429.382,0,0,0,70.742,6.022c4.017,0,8.04.129,12.081,0.129s8.064-.129,12.081-0.129C698.665,749.621,888.51,617.406,950,499.75,923.359,448.774,872.989,395.073,809.208,350.568ZM120.417,499.784C150.2,458.19,197.82,415.7,253.333,381.968a545.253,545.253,0,0,1,55.918-29.694,240.373,240.373,0,0,0-38.318,223.517l49.622-49.622A180.093,180.093,0,0,1,525.042,321.682l64.736-64.736a432.184,432.184,0,0,0-76.7-7.066c-4.017,0-8.041-.13-12.081-0.13s-8.064.13-12.081,0.13C301.335,249.88,111.491,382.093,50,499.75c27.215,52.073,79.192,106.99,144.932,152.043l43.24-43.241C189.3,576.514,147.541,537.822,120.417,499.784ZM823.218,136L504.458,454.76,403.918,555.3,133.25,825.969,186.281,879,462.012,603.269,602.14,463.141l274.11-274.11Z"/></g></svg>