<svg width="22" height="22" viewBox="0 0 22 22" fill="none" xmlns="http://www.w3.org/2000/svg">
<path d="M10.9999 0.799561C16.6332 0.799561 21.2 5.36654 21.2001 10.9998C21.2001 16.6331 16.6332 21.2 10.9999 21.2C5.36669 21.1999 0.79975 16.633 0.799744 10.9998C0.799849 5.36658 5.36675 0.79962 10.9999 0.799561ZM15.6044 6.19995C15.3631 6.20087 15.1305 6.2936 14.954 6.45874L9.27142 11.9451L7.39838 9.87769C7.01691 9.55185 6.45017 9.57381 6.09467 9.92749L5.71088 10.3103C5.36414 10.6543 5.33301 11.2051 5.63861 11.5857L8.71283 15.4158C9.04671 15.8307 9.65295 15.8966 10.0673 15.5623C10.1206 15.519 10.1699 15.4694 10.2128 15.4158L16.3603 7.75464C16.4967 7.58558 16.5712 7.37442 16.5712 7.15698C16.568 6.62516 16.1354 6.19663 15.6044 6.19995Z" fill="black"/>
</svg>
