<svg width="12" height="12" viewBox="0 0 12 12" fill="none" xmlns="http://www.w3.org/2000/svg">
<path fill-rule="evenodd" clip-rule="evenodd" d="M6.45003 9.04319C6.3283 9.15425 6.1688 9.21504 6.00412 9.21306C5.83776 9.21549 5.67658 9.15547 5.55196 9.04533C5.42323 8.93351 5.35879 8.7772 5.35879 8.57626C5.35879 8.40061 5.42033 8.25131 5.54343 8.12806C5.66637 8.00512 5.81719 7.94342 5.99574 7.94342C6.17398 7.94342 6.32617 8.00512 6.45231 8.12806C6.57525 8.24446 6.64365 8.40701 6.64122 8.57626C6.64122 8.77431 6.57738 8.93 6.45003 9.04319ZM5.54343 2.98194C5.66012 2.85717 5.81308 2.79349 6 2.78709C6.18662 2.79349 6.33958 2.85717 6.45642 2.98194C6.57952 3.11341 6.64091 3.29668 6.64106 3.53175C6.64106 3.70436 6.39899 6.87844 6.33958 7.00732C6.28031 7.1359 6.17398 7.20049 6.02118 7.20049C6.01341 7.20049 6.00732 7.19836 6 7.1979C5.99254 7.19836 5.98629 7.20049 5.97867 7.20049C5.82572 7.20049 5.71969 7.13605 5.66028 7.00732C5.60086 6.87844 5.35879 3.7042 5.35879 3.53175C5.35879 3.29668 5.42033 3.11341 5.54343 2.98194ZM6 1.125C3.30763 1.125 1.125 3.30778 1.125 6C1.125 8.69237 3.30763 10.875 6 10.875C8.69237 10.875 10.875 8.69237 10.875 6C10.875 3.30778 8.69237 1.125 6 1.125Z" fill="black"/>
</svg>
