<svg width="328" height="184" viewBox="0 0 328 184" fill="none" xmlns="http://www.w3.org/2000/svg">
<rect width="328" height="184" fill="black" fill-opacity="0.04"/>
<path fill-rule="evenodd" clip-rule="evenodd" d="M192.902 101.8L188.083 99.0537L167.774 111.184C166.621 111.871 165.303 112.234 163.96 112.234C162.617 112.234 161.3 111.871 160.146 111.184L139.837 99.0536L135.019 101.8C134.693 102.007 134.427 102.295 134.245 102.635C134.063 102.976 133.971 103.357 133.978 103.743C133.985 104.129 134.091 104.506 134.286 104.839C134.481 105.173 134.758 105.45 135.091 105.646L161.198 121.24C162.034 121.738 162.988 122 163.96 122C164.932 122 165.887 121.738 166.722 121.24L192.829 105.646C193.162 105.45 193.439 105.173 193.634 104.839C193.829 104.506 193.935 104.129 193.942 103.743C193.949 103.357 193.858 102.976 193.675 102.635C193.493 102.295 193.227 102.007 192.902 101.8ZM192.902 90.0402L187.739 87.0985L179.637 91.9376L178.651 92.5271L177.664 93.1166L167.774 99.024C166.621 99.7111 165.303 100.074 163.96 100.074C162.617 100.074 161.3 99.7111 160.146 99.024L150.257 93.1166L149.27 92.5271L148.283 91.9376L140.181 87.0985L135.019 90.04C134.693 90.2479 134.427 90.5357 134.245 90.8759C134.063 91.2162 133.971 91.5974 133.978 91.9833C133.985 92.3692 134.091 92.7468 134.286 93.0799C134.481 93.413 134.758 93.6906 135.091 93.8861L139.862 96.736L140.849 97.3255L141.836 97.915L161.198 109.48C162.034 109.978 162.988 110.241 163.96 110.241C164.932 110.241 165.887 109.978 166.722 109.48L186.084 97.915L187.071 97.3255L188.058 96.736L192.829 93.8863C193.162 93.6909 193.439 93.4133 193.634 93.0801C193.829 92.747 193.935 92.3694 193.942 91.9834C193.95 91.5975 193.858 91.2162 193.675 90.8759C193.493 90.5357 193.227 90.2479 192.902 90.04V90.0402ZM135.091 81.7258L140.205 84.7808L141.192 85.3704L142.179 85.9598L150.281 90.799L151.268 91.3885L152.255 91.978L161.198 97.32C162.034 97.8176 162.988 98.0802 163.96 98.0802C164.932 98.0802 165.887 97.8176 166.722 97.32L175.665 91.978L176.652 91.3885L177.639 90.799L185.741 85.9598L186.728 85.3704L187.715 84.7808L192.83 81.7258C193.162 81.5303 193.439 81.2527 193.634 80.9196C193.829 80.5864 193.935 80.2088 193.942 79.823C193.95 79.4371 193.858 79.0558 193.675 78.7156C193.493 78.3754 193.227 78.0876 192.902 77.8798L166.185 62.6565C165.522 62.228 164.75 62 163.96 62C163.171 62 162.398 62.228 161.735 62.6565L135.019 77.88C134.693 78.0879 134.427 78.3757 134.245 78.7159C134.063 79.0561 133.971 79.4374 133.978 79.8232C133.985 80.209 134.092 80.5866 134.286 80.9197C134.481 81.2528 134.758 81.5304 135.091 81.7258Z" fill="black"/>
</svg>
