<svg width="328" height="184" viewBox="0 0 328 184" fill="none" xmlns="http://www.w3.org/2000/svg">
<rect width="328" height="184" fill="black" fill-opacity="0.04"/>
<path fill-rule="evenodd" clip-rule="evenodd" d="M164 58C145.222 58 130 73.2223 130 92C130 110.778 145.222 126 164 126C182.778 126 198 110.778 198 92C198 73.2223 182.778 58 164 58ZM164 66.8873L159.455 62.3422C160.959 62.114 162.479 61.9996 164 62V66.8873ZM162.507 121.963L134.037 93.4926C134.013 92.9981 134 92.5005 134 92C134 90.6811 134.086 89.3636 134.257 88.056L164 117.799V122C163.499 122 163.002 121.988 162.507 121.963ZM135.253 83.3948C135.672 81.993 136.193 80.6239 136.814 79.2988L164 106.485V112.142L135.253 83.3948ZM138.835 75.6632C139.57 74.533 140.38 73.4535 141.26 72.432L164 95.1716V100.828L138.835 75.6632ZM144.066 69.5805C145.071 68.6862 146.135 67.8602 147.25 67.1079L164 83.8578V89.5147L144.066 69.5805ZM150.835 65.036C152.139 64.3981 153.488 63.8562 154.871 63.4149L164 72.544V78.2009L150.835 65.036ZM135.154 100.266L155.734 120.846C150.841 119.439 146.387 116.813 142.787 113.213C139.187 109.613 136.561 105.159 135.154 100.266Z" fill="black"/>
</svg>
