<svg width="328" height="184" viewBox="0 0 328 184" fill="none" xmlns="http://www.w3.org/2000/svg">
<rect width="328" height="184" fill="black" fill-opacity="0.04"/>
<path fill-rule="evenodd" clip-rule="evenodd" d="M193.362 112.053C193.124 111.31 192.996 110.535 192.982 109.754C193.01 107.17 193.026 105.634 193.025 102.954C193.446 91.6988 184.634 88.6227 174.786 90.12L167.947 69.702C166.232 64.704 162.96 62 158.675 62C154 62 151.039 64.7857 149.013 70.603C148.595 72.77 132.96 114.169 133.975 115.585C133.975 119.271 136.469 121.893 139.975 121.893C144.873 122.388 146.638 114.161 147.922 110.094H163.355C162.395 119.77 172.88 124.32 180.957 120.824C181.552 120.576 182.133 120.297 182.698 119.988C184.394 121.622 186.13 121.968 187.282 121.967C192.439 121.803 195.52 117.168 193.362 112.053ZM189.229 117.219C186.867 119.224 184.921 116.875 183.585 114.623C179.439 118.255 171.658 119.881 168.229 114.623C165.743 110.564 168.373 105.598 173.08 104.823C174.323 104.547 178.205 103.778 179.724 103.4C180.79 103.147 181.947 102.839 183.194 102.476C183.121 100.912 182.805 99.764 182.247 99.0325C181.256 97.6014 177.023 97.672 175.374 98.5654C174.158 99.0424 172.897 101.329 172.264 102.118C171.682 102.755 169.772 102.619 169.089 101.879C168.853 101.677 168.665 101.425 168.539 101.141C168.413 100.857 168.352 100.549 168.36 100.238C168.436 97.6544 170.304 95.8074 172.928 94.7628C176.229 93.401 182.042 93.5537 184.934 94.7302C190.628 97.0974 188.686 104.7 188.98 109.734C188.99 110.917 189.177 112.093 189.534 113.221C190.092 115.364 190.582 115.848 189.229 117.219ZM151.506 97.8868L158.363 76.256C158.341 76.3983 164.833 97.7628 164.693 97.8863L151.506 97.8868ZM179.398 107.05C176.676 107.757 175.914 107.458 174.124 108.81C172.862 109.834 173.018 112.076 174.276 113.134C176.41 115.016 180.426 113.901 182.053 111.821C183.087 110.599 183.228 108.347 183.193 106.04C182.341 106.364 180.65 106.789 179.398 107.05Z" fill="black"/>
</svg>
