<svg xmlns="http://www.w3.org/2000/svg" width="24" height="24" fill="currentColor" viewBox="0 0 24 24">
  <path d="M4.2 13.595h9.233a2.958 2.958 0 0 1 0-2.369H4.2c-.662 0-1.2.507-1.2 1.17a1.2 1.2 0 0 0 1.2 1.2Zm15.574 0c1.57-.01 1.57-2.361 0-2.371h-.797a2.948 2.948 0 0 1 0 2.369h.794l.003.002Zm-2.038-3a2.308 2.308 0 0 0-1.533-.569c-.574 0-1.119.202-1.534.57-.473.417-.74 1.014-.751 1.682v.043c.012.667.278 1.265.751 1.682.415.367.96.569 1.534.569.573 0 1.118-.202 1.533-.569.473-.417.74-1.015.752-1.682v-.043c-.012-.668-.279-1.265-.752-1.683Zm-1.533 2.78c-.535 0-1.07-.358-1.085-1.073.012-.716.55-1.073 1.085-1.073.535 0 1.07.357 1.085 1.073-.012.715-.55 1.072-1.085 1.072Zm3.571-5.823c.662 0 1.2-.514 1.2-1.176a1.2 1.2 0 0 0-1.2-1.2H10.54a2.975 2.975 0 0 1 0 2.376h9.233Zm-15.574 0h.795a2.965 2.965 0 0 1 0-2.376h-.797c-1.567.01-1.567 2.369 0 2.378l.002-.002Zm2.062.425c.415.367.96.569 1.534.569.573 0 1.118-.202 1.533-.57.473-.417.74-1.014.751-1.682v-.043c-.012-.667-.278-1.265-.75-1.682A2.308 2.308 0 0 0 7.795 4c-.574 0-1.119.202-1.534.569-.473.417-.74 1.015-.751 1.682v.043c.012.668.278 1.265.75 1.683ZM7.796 5.2c.535 0 1.07.358 1.084 1.073-.012.715-.55 1.073-1.084 1.073-.536 0-1.07-.358-1.085-1.073.012-.715.55-1.073 1.085-1.073ZM19.76 17.277h-9.233a2.952 2.952 0 0 1 0 2.366h9.232c.663 0 1.2-.504 1.2-1.166a1.2 1.2 0 0 0-1.2-1.2Zm-10.472-.6a2.308 2.308 0 0 0-1.533-.569c-.574 0-1.119.202-1.534.569-.473.417-.74 1.015-.751 1.682v.043c.012.668.278 1.265.751 1.683.415.367.96.569 1.534.569.573 0 1.118-.202 1.533-.57.473-.417.74-1.014.752-1.682v-.043c-.012-.667-.279-1.265-.752-1.682Zm-1.533 2.779c-.535 0-1.07-.358-1.085-1.073.012-.715.55-1.073 1.085-1.073.535 0 1.07.358 1.085 1.073-.012.715-.55 1.073-1.085 1.073Zm-3.571-2.182c-1.568.01-1.584 2.362-.015 2.372h.795c-.332-.742-.315-1.628.016-2.37h-.796v-.002Z"/>
</svg>
