<svg xmlns="http://www.w3.org/2000/svg" width="24" height="24" fill="currentColor" viewBox="0 0 24 24">
  <path fill-rule="evenodd" d="M12 1.8C6.367 1.8 1.8 6.367 1.8 12c0 5.633 4.567 10.2 10.2 10.2 5.633 0 10.2-4.567 10.2-10.2 0-5.633-4.567-10.2-10.2-10.2Zm0 2.4a1.8 1.8 0 1 1 0 3.6 1.8 1.8 0 0 1 0-3.6Zm3 14.4H9.6v-.618l.127-.004c.373-.012.65-.118.825-.315.062-.071.167-.314.167-1.132V11.08c0-.778-.109-1.07-.2-1.18-.128-.153-.396-.243-.796-.268L9.6 9.624V9h4.2v7.531c0 .778.203 1.071.294 1.18.128.153.376.243.783.267l.123.008v.614Z" clip-rule="evenodd"/>
</svg>
