<svg xmlns="http://www.w3.org/2000/svg" width="24" height="24" fill="currentColor" viewBox="0 0 24 24">
  <path fill-rule="evenodd" d="M11.75 2c5.385 0 9.75 4.365 9.75 9.75s-4.365 9.75-9.75 9.75S2 17.135 2 11.75 6.365 2 11.75 2Zm-1.219 7.557v7.246c.03.578.565 1.04 1.218 1.04s1.189-.462 1.22-1.04V9.557H10.53Zm1.219-3.9c-.34 0-.628.119-.864.358a1.178 1.178 0 0 0-.355.86c0 .325.118.609.355.853.236.243.524.366.864.366.339 0 .627-.123.863-.366.237-.244.356-.528.356-.853 0-.335-.12-.622-.356-.86a1.169 1.169 0 0 0-.863-.359Z" clip-rule="evenodd"/>
</svg>
