<svg width="100" height="100" viewBox="0 0 100 100" xmlns="http://www.w3.org/2000/svg"><path fill="#000000" fill-rule="evenodd" d="M791.664,361.147q-15.3-6.21-31.856-11.681c21.1-85.371,8.27-191.77-47.262-217.449h0c-46-26.559-110.3-11.4-181.433,42.621l35.736,35.742c38.671-26.106,80.253-53.39,120.694-35.052h0c43.9,32.162,33.23,105.294,24.044,160.334A818.241,818.241,0,0,0,603.859,317.2c-35.026-47.825-72.3-90.452-116.518-128.046C317.669,41,189.8,140.542,239.224,349.383,20,416.368,22.241,583.42,240.575,649.288,193.175,849.577,308.758,954,473.355,822.305c77.785-61.679,138.739-142.551,188.9-228.46-6.38-12.618-20.769-41.072-27.268-53.922C590.073,623.317,534.426,702.406,464,765.111c-135.011,118.057-210.1,72.92-175.2-102.157a819.112,819.112,0,0,0,105.1,17.964c13.8,18.921,28,36.886,42.47,53.728l35.769-35.056q-5.791-6.8-11.522-13.861c11.872,0.45,12.5.692,24.552,0.726l41.985-50.543a912.189,912.189,0,0,1-105.763-2.6,965.629,965.629,0,0,1-53.533-87.125l-25.026,57.136q6.673,11.244,13.561,22.2c-19.2-3.071-37.758-6.76-55.511-11.06,5.143-17.5,11.217-35.385,18.139-53.515l0.389,0.732,25.52-60.357c-0.072-.151-0.146-0.3-0.218-0.453a970.884,970.884,0,0,1,78.64-136.115,972.911,972.911,0,0,1,153.022.078c52.191,76.107,95.759,161.282,121.87,249.547-2.115.513-4.25,1.011-6.387,1.508L650.708,674.8c20.543-3.3,40.438-7.275,59.512-11.9,26.2,128.334-7.57,224-141.9,127.764L532.933,826.74c162.662,124.251,271.1,15.726,225.524-177.534C946.505,594.331,995,441,791.664,361.147Zm-453.87,45.347c-14.455,23.572-37.054,72.337-49.452,97.61l-0.014-.01a815.59,815.59,0,0,0-35.477,96.591C84.243,543.52,81.9,456.086,251.475,398.016c5.1,17.385,11.027,35.1,17.736,53.011l33.467-56.336q-1.653-5.307-3.206-10.574c18.793-4.6,38.491-8.517,58.908-11.73Q347.843,389.1,337.794,406.494Zm161.6-94.732c-4.122,0-29.2.4-36.772,0.67q5.289-6.5,10.63-12.775l-35.438-35.443c-14.26,16.589-28.262,34.269-41.876,52.881a819.359,819.359,0,0,0-108.5,18.509c-50.213-277.441,147.83-154.638,249.8-23.134Q518.463,311.775,499.389,311.762Zm351.3,232.5c-21.447,21.641-67.149,44.377-104.412,56.3C722.86,520.95,685.677,443.4,641.288,372.531c20.223,3.206,39.737,7.105,58.36,11.671q-2.091,7.187-4.394,14.459l31.23,61.758c8.145-21.081,15.226-41.911,21.162-62.286C811.885,419.3,922.349,475.247,850.686,544.263Zm-351.3-123.5a80.02,80.02,0,1,0,80.009,80.02A80.014,80.014,0,0,0,499.389,420.762Z" transform="scale(.1)"/></svg>