<svg width="24" height="24" viewBox="0 0 24 24" fill="none" xmlns="http://www.w3.org/2000/svg">
<g clip-path="url(#clip0_6062_5599)">
<path fill-rule="evenodd" clip-rule="evenodd" d="M24 0H0V24H24V0ZM19.5794 7.17558C19.2465 6.84289 18.7951 6.65602 18.3245 6.65602C17.8539 6.65602 17.4025 6.84289 17.0695 7.17558L10.1789 14.0684L6.88783 10.775C6.55118 10.4612 6.10591 10.2904 5.64583 10.2985C5.18575 10.3066 4.74678 10.4931 4.4214 10.8186C4.09602 11.1441 3.90964 11.5832 3.90152 12.0434C3.8934 12.5037 4.06419 12.9491 4.37788 13.2859L8.92396 17.8347C9.25694 18.1674 9.70832 18.3543 10.1789 18.3543C10.6496 18.3543 11.1009 18.1674 11.4339 17.8347L19.5794 9.68643C19.912 9.35333 20.0988 8.90179 20.0988 8.431C20.0988 7.96022 19.912 7.50868 19.5794 7.17558Z" fill="black"/>
</g>
<defs>
<clipPath id="clip0_6062_5599">
<rect width="24" height="24" fill="white"/>
</clipPath>
</defs>
</svg>
