<svg width="64" height="64" viewBox="0 0 64 64" fill="none" xmlns="http://www.w3.org/2000/svg">
<path fill-rule="evenodd" clip-rule="evenodd" d="M32.002 58C46.3614 58 58.002 46.3594 58.002 32C58.002 17.6406 46.3614 6 32.002 6C17.6425 6 6.00195 17.6406 6.00195 32C6.00195 46.3594 17.6425 58 32.002 58ZM45.0431 23.0034C45.4291 22.5363 45.6136 21.9348 45.5558 21.3315C45.4981 20.7283 45.2029 20.1727 44.7354 19.7873C43.7621 18.984 42.3221 19.1218 41.5187 20.0952L26.5652 38.2129L22.772 30.1788C22.4235 29.4402 21.7076 28.9437 20.894 28.8762C20.0803 28.8088 19.2925 29.1807 18.8272 29.8518C18.362 30.523 18.2901 31.3915 18.6385 32.1301L23.969 43.4192C24.3032 44.1267 24.976 44.614 25.7523 44.7109C26.5284 44.8086 27.3005 44.5017 27.7979 43.8977L45.0431 23.0034Z" fill="black"/>
</svg>
