<svg width="24" height="24" viewBox="0 0 24 24" fill="none" xmlns="http://www.w3.org/2000/svg">
<path d="M18.3171 7.55803C18.0396 7.28075 17.6634 7.125 17.2712 7.125C16.8789 7.125 16.5027 7.28075 16.2252 7.55803L10.4822 13.3029L7.73919 10.558C7.45861 10.2965 7.08749 10.1541 6.70404 10.1609C6.32058 10.1676 5.95471 10.323 5.68353 10.5943C5.41234 10.8656 5.257 11.2316 5.25023 11.6152C5.24346 11.9988 5.3858 12.37 5.64726 12.6507L9.43622 16.442C9.71375 16.7193 10.09 16.875 10.4822 16.875C10.8744 16.875 11.2506 16.7193 11.5282 16.442L18.3171 9.65071C18.5943 9.37309 18.75 8.99675 18.75 8.60437C18.75 8.21199 18.5943 7.83565 18.3171 7.55803Z" fill="black"/>
</svg>
