<svg xmlns="http://www.w3.org/2000/svg" width="24" height="24" fill="none" viewBox="0 0 24 24">
  <path fill="#FFD000" d="M11.385 1.593a2 2 0 0 1 1.23 0l.198.076.143.072c.32.182.538.45.696.673.184.259.38.601.598.976l8.225 14.207.307.537c.094.17.178.327.244.471.116.249.238.573.237.942l-.008.16a2 2 0 0 1-.65 1.277l-.163.134c-.355.258-.757.325-1.069.354-.317.028-.713.028-1.148.028H3.775c-.436 0-.832 0-1.149-.029-.273-.025-.614-.08-.933-.265l-.135-.088a2 2 0 0 1-.78-1.202l-.033-.208c-.045-.436.097-.819.229-1.103.133-.289.332-.63.55-1.008L9.75 3.39l.312-.532c.099-.165.194-.315.286-.444.18-.255.44-.568.84-.745l.197-.076Zm.595 1.977c-.118.166-.262.413-.5.822L3.257 18.6c-.238.411-.38.66-.467.846-.005.01-.008.021-.013.03l.033.005c.204.019.49.02.966.02h16.45c.475 0 .762-.001.965-.02.012 0 .023-.003.033-.005l-.012-.03a12.242 12.242 0 0 0-.467-.846L12.52 4.392a12.13 12.13 0 0 0-.5-.822c-.006-.01-.014-.017-.02-.025l-.02.025Z"/>
  <path fill="#FFD000" d="M12.01 15.859a1 1 0 1 1 0 2H12a1 1 0 0 1 0-2h.01Zm-1.01-3v-4a1 1 0 0 1 2 0v4a1 1 0 1 1-2 0Z"/>
</svg>
