<svg xmlns="http://www.w3.org/2000/svg" width="24" height="24" fill="currentColor" viewBox="0 0 24 24">
  <path fill-rule="evenodd" d="M22 12a9.988 9.988 0 0 0-2.5-6.615.625.625 0 0 0-.937.827A8.739 8.739 0 0 1 20.75 12c0 2.76-.979 5.042-2.671 6.583a3.408 3.408 0 0 0-.041-.39 10.125 10.125 0 0 0-.197-.725 8.415 8.415 0 0 0-.23-.517c-.192-.37-.729-1.056-.773-1.106a11.024 11.024 0 0 0-.449-.456 10.35 10.35 0 0 0-.484-.404 6.685 6.685 0 0 0-1.827-.974c.718-.709 1.176-1.776 1.176-2.968 0-2.13-1.46-3.861-3.254-3.861s-3.254 1.732-3.254 3.86c0 1.19.457 2.256 1.172 2.965-2.183.746-3.75 2.572-3.974 4.3A8.723 8.723 0 0 1 3.25 12c0-4.825 3.925-8.75 8.75-8.75 1.539 0 3.051.405 4.374 1.17a.625.625 0 1 0 .627-1.082A9.999 9.999 0 0 0 12 2C6.486 2 2 6.486 2 12a9.997 9.997 0 0 0 4.544 8.374A9.94 9.94 0 0 0 12 22c1.869 0 3.558-.416 4.994-1.17a.617.617 0 0 0 .283-.154C20.199 19.01 22 15.895 22 12Zm-12.004-.957c0-1.44.899-2.611 2.004-2.611s2.004 1.171 2.004 2.61c0 1.44-.899 2.611-2.004 2.611s-2.004-1.17-2.004-2.61Zm-2.832 7.685c-.001.228.051.454.154.658A8.695 8.695 0 0 0 12 20.75c1.685 0 3.19-.366 4.46-1.035.248-.284.376-.606.376-.987 0-.096-.011-.206-.032-.335a21.35 21.35 0 0 0-.14-.504 9.17 9.17 0 0 0-.162-.364c-.108-.205-.521-.756-.607-.86-.056-.063-.303-.31-.35-.354a11.622 11.622 0 0 0-.392-.328c-.924-.696-2.043-1.08-3.153-1.08-2.604 0-4.836 2.103-4.836 3.825Z" clip-rule="evenodd"/>
</svg>
