<svg width="24" height="24" viewBox="0 0 24 24" fill="none" xmlns="http://www.w3.org/2000/svg">
<g clip-path="url(#clip0_4680_3258)">
<path fill-rule="evenodd" clip-rule="evenodd" d="M18.1469 5.35312C18.6177 5.82393 18.6177 6.58814 18.1469 7.05895L13.456 11.749L18.1469 16.441C18.6177 16.9119 18.6177 17.6761 18.1469 18.1469C17.6761 18.6177 16.9119 18.6177 16.4411 18.1469L11.75 13.4549L7.05894 18.1469C6.58813 18.6177 5.82392 18.6177 5.35311 18.1469C4.8823 17.6761 4.8823 16.9119 5.35311 16.441L10.044 11.749L5.35311 7.05895C4.8823 6.58814 4.8823 5.82393 5.35311 5.35312C5.82392 4.88231 6.58813 4.88231 7.05894 5.35312L11.75 10.0429L16.4411 5.3531C16.9119 4.88229 17.6761 4.88231 18.1469 5.35312Z" fill="black"/>
</g>
<defs>
<clipPath id="clip0_4680_3258">
<rect width="24" height="24" fill="white"/>
</clipPath>
</defs>
</svg>
