<svg width="24" height="24" viewBox="0 0 24 24" fill="none" xmlns="http://www.w3.org/2000/svg">
<g clip-path="url(#clip0_4699_6387)">
<path fill-rule="evenodd" clip-rule="evenodd" d="M15.1014 16.8494C14.9273 17.0236 14.6991 17.1109 14.4711 17.1109C14.2432 17.1109 14.015 17.0236 13.841 16.8494L11.75 14.7543L9.65899 16.8494C9.48505 17.0236 9.25693 17.1109 9.02891 17.1109C8.80076 17.1109 8.57266 17.0237 8.39864 16.8493C8.05068 16.5006 8.05068 15.9352 8.3988 15.5865L10.4897 13.4916L8.47311 11.4712C8.1252 11.1224 8.1252 10.5571 8.47311 10.2083C8.82127 9.85981 9.38545 9.85981 9.73359 10.2083L11.7501 12.2288L13.7667 10.2083C14.1148 9.85981 14.6792 9.85981 15.0271 10.2083C15.3751 10.5571 15.3751 11.1225 15.027 11.4712L13.0104 13.4916L15.1014 15.5865C15.4493 15.9353 15.4493 16.5006 15.1014 16.8494ZM21.2046 17.1026L13.6215 4.07706C13.2457 3.43291 12.5484 3 11.75 3C10.9516 3 10.2545 3.43304 9.87867 4.07719L2.31377 17.0705C2.31351 17.0709 2.31325 17.0713 2.31296 17.0718L2.29515 17.1025C2.10772 17.4237 2 17.7973 2 18.1963C2 19.3952 2.97003 20.3672 4.16668 20.3672H19.3333C20.5299 20.3672 21.5 19.3952 21.5 18.1963C21.5 17.7973 21.3921 17.4238 21.2046 17.1026Z" fill="black"/>
</g>
<defs>
<clipPath id="clip0_4699_6387">
<rect width="24" height="24" fill="white"/>
</clipPath>
</defs>
</svg>
