<svg width="64" height="64" viewBox="0 0 64 64" fill="none" xmlns="http://www.w3.org/2000/svg">
<path fill-rule="evenodd" clip-rule="evenodd" d="M40.939 45.9317C40.4749 46.3964 39.8663 46.6291 39.2584 46.6291C38.6504 46.6291 38.0418 46.3964 37.5779 45.9317L32.0019 40.3449L26.4259 45.9317C25.9621 46.3964 25.3538 46.6291 24.7457 46.6291C24.1373 46.6291 23.5291 46.3964 23.065 45.9315C22.1371 45.0016 22.1371 43.4939 23.0654 42.5639L28.6413 36.9776L23.2636 31.5898C22.3358 30.6598 22.3358 29.1523 23.2636 28.2221C24.192 27.2928 25.6965 27.2928 26.6249 28.2221L32.0023 33.6102L37.3798 28.2221C38.308 27.2928 39.813 27.2928 40.7409 28.2221C41.6689 29.1523 41.6689 30.6601 40.7406 31.5898L35.3631 36.9776L40.939 42.5639C41.8668 43.4942 41.8668 45.0016 40.939 45.9317ZM57.2143 46.6069L36.9927 11.8721C35.9906 10.1544 34.1311 9 32.002 9C29.8728 9 28.014 10.1548 27.0118 11.8725L6.83867 46.5212C6.83797 46.5223 6.83728 46.5235 6.83652 46.5249L6.78903 46.6066C6.2892 47.4632 6.00195 48.4594 6.00195 49.5234C6.00195 52.7206 8.58871 55.3125 11.7798 55.3125H52.2242C55.4151 55.3125 58.002 52.7206 58.002 49.5234C58.002 48.4594 57.7141 47.4634 57.2143 46.6069Z" fill="black"/>
</svg>
