<svg width="24" height="24" viewBox="0 0 24 24" fill="none" xmlns="http://www.w3.org/2000/svg">
<g clip-path="url(#clip0_4702_6703)">
<path fill-rule="evenodd" clip-rule="evenodd" d="M11.75 2C17.1348 2 21.5 6.36522 21.5 11.75C21.5 17.1348 17.1348 21.5 11.75 21.5C6.36522 21.5 2 17.1348 2 11.75C2 6.36522 6.36522 2 11.75 2ZM10.5312 9.55664V16.8027C10.5619 17.3813 11.0964 17.8436 11.749 17.8438C12.4018 17.8438 12.938 17.3814 12.9688 16.8027V9.55664H10.5312ZM11.75 5.65625C11.4102 5.65625 11.1224 5.7757 10.8857 6.01465C10.6493 6.25281 10.5312 6.54006 10.5312 6.875C10.5313 7.19985 10.6494 7.48386 10.8857 7.72754C11.1224 7.97094 11.4102 8.09375 11.75 8.09375C12.089 8.09375 12.377 7.97094 12.6133 7.72754C12.8499 7.4838 12.9687 7.19998 12.9688 6.875C12.9688 6.53995 12.8499 6.25286 12.6133 6.01465C12.3912 5.78186 12.0774 5.65125 11.75 5.65625Z" fill="black"/>
</g>
<defs>
<clipPath id="clip0_4702_6703">
<rect width="24" height="24" fill="white"/>
</clipPath>
</defs>
</svg>
