<svg width="100" height="100" viewBox="0 0 100 100" xmlns="http://www.w3.org/2000/svg"><path fill="#000000" d="M500.5,74.75C265.088,74.75,74.249,265.59,74.249,501S265.088,927.25,500.5,927.25,926.751,736.412,926.751,501,735.912,74.75,500.5,74.75ZM460.578,237.1c10.208-10.906,23.587-16.481,39.92-17.04,16.319,0.559,29.7,6.134,39.907,17.04q16.134,17.256,16.149,48.079c0,15.088-21.166,292.627-26.357,303.885s-14.487,16.893-27.855,16.893c-0.666,0-1.2-.194-1.844-0.229-0.649.035-1.2,0.229-1.858,0.229q-20.05,0-27.842-16.893c-5.2-11.258-26.358-288.8-26.358-303.885Q444.44,254.357,460.578,237.1Zm79.273,529.988a56.906,56.906,0,0,1-38.99,14.85,58.393,58.393,0,0,1-39.535-14.675q-16.885-14.66-16.886-41.01,0-23.025,16.138-39.179t39.548-16.147q23.376,0,39.913,16.147a52.768,52.768,0,0,1,16.521,39.179Q556.56,752.232,539.851,767.088Z" transform="scale(.1)"/></svg>