<svg width="64" height="64" viewBox="0 0 64 64" fill="none" xmlns="http://www.w3.org/2000/svg">
<path fill-rule="evenodd" clip-rule="evenodd" d="M32.002 58C46.3614 58 58.002 46.3594 58.002 32C58.002 17.6406 46.3614 6 32.002 6C17.6425 6 6.00195 17.6406 6.00195 32C6.00195 46.3594 17.6425 58 32.002 58ZM35.252 45.4746C35.1701 47.0177 33.7409 48.25 32.0001 48.25C30.2593 48.25 28.8345 47.0177 28.7526 45.4746V26.15H35.252V45.4746ZM29.6979 16.7052C30.3289 16.068 31.0959 15.7504 32.002 15.7504C32.8751 15.737 33.7127 16.0843 34.305 16.7052C34.936 17.3404 35.252 18.1062 35.252 18.9997C35.252 19.8664 34.936 20.6244 34.305 21.2744C33.675 21.9235 32.906 22.25 32.002 22.25C31.0959 22.25 30.3289 21.9235 29.6979 21.2744C29.0669 20.6244 28.752 19.8664 28.752 18.9997C28.752 18.1062 29.0669 17.3404 29.6979 16.7052Z" fill="black"/>
</svg>
