<svg width="24" height="24" viewBox="0 0 24 24" fill="none" xmlns="http://www.w3.org/2000/svg">
<g clip-path="url(#clip0_4702_8007)">
<path d="M11.75 21.5C6.365 21.5 2 17.135 2 11.75C2 6.365 6.365 2 11.75 2C17.135 2 21.5 6.365 21.5 11.75C21.5 17.135 17.135 21.5 11.75 21.5ZM16.6407 8.3765C16.7855 8.201 16.8545 7.976 16.8328 7.7495C16.811 7.523 16.7008 7.31525 16.5253 7.1705C16.16 6.869 15.62 6.92075 15.3193 7.286L9.7115 14.0802L8.28875 11.0675C8.15825 10.7908 7.88975 10.604 7.5845 10.5793C7.27925 10.5545 6.98375 10.6932 6.80975 10.9452C6.635 11.1973 6.608 11.5227 6.73925 11.7995L8.738 16.0333C8.86325 16.2987 9.116 16.481 9.407 16.5177C9.698 16.5545 9.9875 16.439 10.1742 16.2125L16.6415 8.37725L16.6407 8.3765Z" fill="black"/>
</g>
<defs>
<clipPath id="clip0_4702_8007">
<rect width="24" height="24" fill="white"/>
</clipPath>
</defs>
</svg>
