<svg width="24" height="24" viewBox="0 0 24 24" fill="none" xmlns="http://www.w3.org/2000/svg">
<g clip-path="url(#clip0_4702_6695)">
<path fill-rule="evenodd" clip-rule="evenodd" d="M11.75 2C17.1348 2.00002 21.5 6.36528 21.5 11.75C21.5 17.1347 17.1348 21.5 11.75 21.5C6.36527 21.5 2.00001 17.1347 2 11.75C2 6.36527 6.36527 2 11.75 2ZM11.75 15.4062C11.411 15.4062 11.123 15.5291 10.8867 15.7725C10.6501 16.0162 10.5313 16.3 10.5312 16.625C10.5312 16.96 10.6501 17.2471 10.8867 17.4854C11.1088 17.7181 11.4226 17.8488 11.75 17.8438C12.0898 17.8438 12.3776 17.7243 12.6143 17.4854C12.8507 17.2472 12.9688 16.9599 12.9688 16.625C12.9687 16.3002 12.8506 16.0161 12.6143 15.7725C12.3776 15.5291 12.0898 15.4062 11.75 15.4062ZM11.751 5.65625C11.0982 5.65625 10.562 6.11852 10.5312 6.69727L10.7754 13.9434H12.7246L12.9688 6.69727C12.9381 6.11857 12.4037 5.65633 11.751 5.65625Z" fill="black"/>
</g>
<defs>
<clipPath id="clip0_4702_6695">
<rect width="24" height="24" fill="white"/>
</clipPath>
</defs>
</svg>
