<svg xmlns="http://www.w3.org/2000/svg" width="24" height="24" fill="currentColor" viewBox="0 0 24 24">
  <path fill-rule="evenodd" d="M12 1.8C6.367 1.8 1.8 6.367 1.8 12c0 5.633 4.567 10.2 10.2 10.2 5.633 0 10.2-4.567 10.2-10.2 0-5.633-4.567-10.2-10.2-10.2ZM12 21a9 9 0 1 1 0-18 9 9 0 0 1 0 18Zm1.43-15.91a3.746 3.746 0 0 0-5.19 3.456v.05a3.745 3.745 0 0 0 7.49-.018v-.032c0-1.51-.906-2.874-2.3-3.457Zm1.871 6.598c-.756.714-1.743 1.273-2.836 1.38a4.964 4.964 0 0 1-.902.005c-1.116-.096-2.124-.659-2.894-1.385a4.427 4.427 0 0 0-2.473 3.973v1.812a8.4 8.4 0 0 0 11.578.028v-1.84a4.426 4.426 0 0 0-2.473-3.973Z" clip-rule="evenodd"/>
</svg>
