<svg xmlns="http://www.w3.org/2000/svg" width="24" height="24" fill="currentColor" viewBox="0 0 24 24">
  <path fill-rule="evenodd" d="M18.17 11.844 12 18.574l-6.169-6.73-.003-.004a3.15 3.15 0 0 1 .238-4.496 3.268 3.268 0 0 1 4.458.124l.944.883.532.505.532-.504.944-.884.01-.01a3.236 3.236 0 0 1 2.285-.932c1.785 0 3.232 1.425 3.232 3.183a3.16 3.16 0 0 1-.83 2.131l-.004.004Zm1.41-5.886c-2.091-2.06-5.473-2.072-7.58-.037-2.106-2.035-5.488-2.023-7.58.037a5.25 5.25 0 0 0-.1 7.401L12 21.701l7.68-8.342a5.25 5.25 0 0 0-.1-7.401Z" clip-rule="evenodd"/>
</svg>
