<svg width="16" height="17" viewBox="0 0 16 17" fill="none" xmlns="http://www.w3.org/2000/svg">
<path fill-rule="evenodd" clip-rule="evenodd" d="M12.3789 8.11097L7.9999 12.9612L3.62114 8.11097L3.61891 8.10853C2.77086 7.16725 2.84663 5.71673 3.78791 4.86869C4.69486 4.05192 6.08261 4.08788 6.94568 4.95095C6.94792 4.95339 6.95015 4.95562 6.95239 4.95786L7.62209 5.59445L7.9999 5.95805L8.37771 5.59466L9.04762 4.95786C9.04965 4.95562 9.05208 4.95339 9.05432 4.95095C9.48373 4.51931 10.0677 4.27759 10.6765 4.27922C11.9434 4.27922 12.9706 5.30601 12.9708 6.57311C12.9708 7.14023 12.7607 7.68725 12.3811 8.10853L12.3789 8.11097ZM13.3803 3.86974C11.8959 2.38551 9.49534 2.37698 7.99993 3.84313C6.50473 2.37698 4.1042 2.38551 2.61977 3.86974C1.15118 5.33853 1.12701 7.70494 2.54807 9.20298L7.99993 15.2141L13.452 9.20298C14.8729 7.70494 14.8489 5.33853 13.3803 3.86974Z" fill="black"/>
</svg>
