<svg width="96" height="96" viewBox="0 0 96 96" xmlns="http://www.w3.org/2000/svg"><g transform="scale(.096)"><path id="Delete" fill="#000000" fill-rule="evenodd" d="M817.493,676.165a49.977,49.977,0,0,1,0,70.664l-70.664,70.664a49.977,49.977,0,0,1-70.664,0L499.5,640.828,322.835,817.493a49.977,49.977,0,0,1-70.664,0l-70.664-70.664a49.977,49.977,0,0,1,0-70.664L358.172,499.5,181.507,322.835a49.977,49.977,0,0,1,0-70.664l70.664-70.664a49.977,49.977,0,0,1,70.664,0L499.5,358.172,676.165,181.507a49.977,49.977,0,0,1,70.664,0l70.664,70.664a49.977,49.977,0,0,1,0,70.664L640.828,499.5Z"/></g></svg>