<svg width="14" height="14" viewBox="0 0 14 14" fill="none" xmlns="http://www.w3.org/2000/svg">
<path fill-rule="evenodd" clip-rule="evenodd" d="M10.8315 6.6596L6.99991 10.9035L3.1685 6.6596L3.16654 6.65746C2.4245 5.83384 2.4908 4.56464 3.31442 3.8226C4.108 3.10793 5.32228 3.13939 6.07747 3.89458C6.07943 3.89672 6.08138 3.89867 6.08334 3.90063L6.66933 4.45765L6.99991 4.77579L7.3305 4.45782L7.91667 3.90063C7.91844 3.89867 7.92057 3.89672 7.92253 3.89458C8.29826 3.5169 8.80925 3.30539 9.34191 3.30682C10.4504 3.30682 11.3492 4.20526 11.3494 5.31397C11.3494 5.8102 11.1656 6.28884 10.8335 6.65746L10.8315 6.6596ZM11.7078 2.94852C10.4089 1.64982 8.30842 1.64235 6.99994 2.92524C5.69164 1.64235 3.59118 1.64982 2.2923 2.94852C1.00728 4.23372 0.98613 6.30432 2.22956 7.61511L6.99994 12.8748L11.7705 7.61511C13.0138 6.30432 12.9928 4.23372 11.7078 2.94852Z" fill="white"/>
</svg>
