<svg width="28" height="28" viewBox="0 0 28 28" fill="none" xmlns="http://www.w3.org/2000/svg">
<path fill-rule="evenodd" clip-rule="evenodd" d="M21.663 13.3192L13.9998 21.8071L6.337 13.3192L6.33309 13.3149C4.84901 11.6677 4.9816 9.12928 6.62884 7.6452C8.216 6.21586 10.6446 6.27878 12.1549 7.78917C12.1589 7.79343 12.1628 7.79734 12.1667 7.80125L13.3387 8.91529L13.9998 9.55158L14.661 8.91565L15.8333 7.80125C15.8369 7.79734 15.8411 7.79343 15.8451 7.78917C16.5965 7.0338 17.6185 6.61079 18.6838 6.61363C20.9009 6.61363 22.6985 8.41053 22.6988 10.6279C22.6988 11.6204 22.3313 12.5777 21.6669 13.3149L21.663 13.3192ZM23.4155 5.89704C20.8178 3.29964 16.6168 3.28471 13.9999 5.85048C11.3833 3.28471 7.18236 3.29964 4.5846 5.89704C2.01456 8.46744 1.97226 12.6086 4.45912 15.2302L13.9999 25.7496L23.541 15.2302C26.0275 12.6086 25.9856 8.46744 23.4155 5.89704Z" fill="black"/>
</svg>
