<svg width="24" height="23" viewBox="0 0 24 23" fill="none" xmlns="http://www.w3.org/2000/svg">
<path fill-rule="evenodd" clip-rule="evenodd" d="M19.663 10.3192L11.9998 18.8071L4.337 10.3192L4.33309 10.3149C2.84901 8.66768 2.9816 6.12928 4.62884 4.6452C6.216 3.21586 8.64456 3.27878 10.1549 4.78917C10.1589 4.79343 10.1628 4.79734 10.1667 4.80125L11.3387 5.91529L11.9998 6.55158L12.661 5.91565L13.8333 4.80125C13.8369 4.79734 13.8411 4.79343 13.8451 4.78917C14.5965 4.0338 15.6185 3.61079 16.6838 3.61363C18.9009 3.61363 20.6985 5.41053 20.6988 7.62794C20.6988 8.62041 20.3313 9.57768 19.6669 10.3149L19.663 10.3192ZM21.4155 2.89704C18.8178 0.299636 14.6168 0.284707 11.9999 2.85048C9.38328 0.284707 5.18236 0.299636 2.5846 2.89704C0.0145609 5.46744 -0.0277397 9.60864 2.45912 12.2302L11.9999 22.7496L21.541 12.2302C24.0275 9.60864 23.9856 5.46744 21.4155 2.89704Z" fill="black"/>
</svg>
