<svg width="64" height="64" viewBox="0 0 64 64" fill="none" xmlns="http://www.w3.org/2000/svg">
<path fill-rule="evenodd" clip-rule="evenodd" d="M17.468 54.942H45.2175V7.29541H17.468V54.942ZM31.3445 60.2341C30.3862 60.2341 29.6095 59.4438 29.6095 58.4697C29.6095 57.4948 30.3862 56.7054 31.3445 56.7054C32.3027 56.7054 33.0785 57.4948 33.0785 58.4697C33.0785 59.4438 32.3027 60.2341 31.3445 60.2341ZM28.7433 3.76514H33.9464C34.4255 3.76514 34.8134 4.15982 34.8134 4.64639C34.8134 5.13482 34.4255 5.52951 33.9464 5.52951H28.7433C28.2642 5.52951 27.8763 5.13482 27.8763 4.64639C27.8763 4.15982 28.2642 3.76514 28.7433 3.76514ZM45.2222 2H17.4653C15.5507 2.00094 13.9991 3.58156 14 5.52969V58.4703C13.9991 60.4184 15.5507 61.9991 17.4653 62H45.2222C47.1368 61.9991 48.6884 60.4184 48.6875 58.4703V5.52969C48.6884 3.58156 47.1368 2.00094 45.2222 2Z" fill="black"/>
</svg>
