<svg width="24" height="24" viewBox="0 0 24 24" fill="none" xmlns="http://www.w3.org/2000/svg">
<path fill-rule="evenodd" clip-rule="evenodd" d="M10 6V18C10 19.4 10 20.1 9.728 20.635C9.4881 21.1053 9.10549 21.4875 8.635 21.727C8.1 22 7.4 22 6 22C4.6 22 3.9 22 3.365 21.727C2.89451 21.4875 2.5119 21.1053 2.272 20.635C2 20.1 2 19.4 2 18V6C2 4.6 2 3.9 2.272 3.365C2.51173 2.89435 2.89435 2.51173 3.365 2.272C3.9 2 4.6 2 6 2C7.4 2 8.1 2 8.635 2.272C9.10565 2.51173 9.48827 2.89435 9.728 3.365C10 3.9 10 4.6 10 6ZM7 19.75C7.19891 19.75 7.38968 19.671 7.53033 19.5303C7.67098 19.3897 7.75 19.1989 7.75 19C7.75 18.8011 7.67098 18.6103 7.53033 18.4697C7.38968 18.329 7.19891 18.25 7 18.25H5C4.80109 18.25 4.61032 18.329 4.46967 18.4697C4.32902 18.6103 4.25 18.8011 4.25 19C4.25 19.1989 4.32902 19.3897 4.46967 19.5303C4.61032 19.671 4.80109 19.75 5 19.75H7Z" fill="black"/>
<path d="M19.06 10.614L13.222 16.704C12.492 17.465 12.127 17.846 11.814 17.72C11.5 17.594 11.5 17.067 11.5 16.012V7.77396C11.5015 7.11393 11.7639 6.48126 12.23 6.01396L13.284 4.95896L13.714 4.62896C14.718 3.86196 15.22 3.47896 15.767 3.35996C16.2172 3.26314 16.6854 3.29255 17.12 3.44496C17.648 3.62896 18.099 4.07296 19 4.95896C20 5.95896 20.5 6.45896 20.685 7.03096C20.8427 7.51897 20.8466 8.04369 20.696 8.53396C20.52 9.10896 20.033 9.61096 19.06 10.614ZM12.79 22H17.9C19.3 22 20 22 20.534 21.727C21.0045 21.4875 21.3871 21.1052 21.627 20.635C21.899 20.1 21.899 19.4 21.899 18C21.899 16.6 21.899 15.9 21.627 15.365C21.3871 14.8947 21.0045 14.5124 20.534 14.273C20 14 19.3 14 17.9 14H17.68L11.879 19.798C11.7595 19.9119 11.6644 20.0489 11.5994 20.2007C11.5345 20.3525 11.501 20.5159 11.501 20.681C11.501 21.394 12.078 22 12.791 22" fill="black"/>
</svg>
