<svg width="100" height="100" viewBox="0 0 100 100" xmlns="http://www.w3.org/2000/svg"><path fill="#000000" fill-rule="evenodd" d="M875.466,298.387a25.143,25.143,0,0,0-12.549-20.035L512.7,78.391a25.033,25.033,0,0,0-24.822,0L137.665,278.352a25.138,25.138,0,0,0-12.6,21.7V699.976a24.991,24.991,0,0,0,12.6,21.7L487.88,921.64a25.187,25.187,0,0,0,24.822,0L862.917,721.678a24.991,24.991,0,0,0,12.6-21.7C874.951,697.957,876,300.163,875.466,298.387ZM500.291,128.881l299.8,171.173L616.375,404.947c-58-72.788-174.195-72.759-232.168,0L200.5,300.054ZM600.352,500.013c0.292,55.483-46.217,100.394-100.062,99.98-53.843.41-100.353-44.494-100.06-99.98-0.429-54.068,45.013-100.389,100.061-99.98C555.334,399.623,600.787,445.946,600.352,500.013ZM475.275,856.867l-300.184-171.4V343.125L359.35,448.331c-33.214,86.8,25.691,185.852,115.925,199.567V856.867Zm350.216-171.4-300.185,171.4V647.9c90.245-13.717,149.135-112.783,115.925-199.567l184.26-105.206V685.471Z" transform="scale(.1)"/></svg>