<svg width="328" height="184" viewBox="0 0 328 184" fill="none" xmlns="http://www.w3.org/2000/svg">
<rect width="328" height="184" fill="white" fill-opacity="0.08"/>
<path fill-rule="evenodd" clip-rule="evenodd" d="M25.8743 53.875H46.1243V74.125H25.8743V53.875ZM26.8868 54.8875H45.1118V73.1125H26.8868V54.8875ZM35.2843 67.7461L40.8705 61.266L40.8703 61.2659C40.99 61.1273 41.0618 60.9515 41.0618 60.76C41.0618 60.3127 40.671 59.95 40.1889 59.95C39.958 59.95 39.7482 60.0334 39.5921 60.1693L39.592 60.1691L34.4281 64.81L32.7268 63.061L32.7266 63.0612C32.574 62.9396 32.3757 62.866 32.1588 62.866C31.9177 62.866 31.6995 62.9567 31.5416 63.1033L31.1924 63.4273C31.0345 63.5739 30.9368 63.7763 30.9368 64C30.9368 64.1915 31.0085 64.3673 31.1282 64.5059L31.128 64.506L33.9211 67.746L33.9213 67.7459C34.0812 67.9312 34.327 68.05 34.6027 68.05C34.8784 68.05 35.1242 67.9312 35.2841 67.7459L35.2843 67.7461Z" fill="#FF7900"/>
<path d="M65.248 58.576H66.768V68.72H72.816V70H65.248V58.576ZM81.4426 69.968C81.208 70.1067 80.8826 70.176 80.4666 70.176C80.1146 70.176 79.832 70.08 79.6186 69.888C79.416 69.6853 79.3146 69.36 79.3146 68.912C78.9413 69.36 78.504 69.6853 78.0026 69.888C77.512 70.08 76.9786 70.176 76.4026 70.176C76.0293 70.176 75.672 70.1333 75.3306 70.048C75 69.9627 74.712 69.8293 74.4666 69.648C74.2213 69.4667 74.024 69.232 73.8746 68.944C73.736 68.6453 73.6666 68.288 73.6666 67.872C73.6666 67.4027 73.7466 67.0187 73.9066 66.72C74.0666 66.4213 74.2746 66.1813 74.5306 66C74.7973 65.808 75.096 65.664 75.4266 65.568C75.768 65.472 76.1146 65.392 76.4666 65.328C76.84 65.2533 77.192 65.2 77.5226 65.168C77.864 65.1253 78.1626 65.072 78.4186 65.008C78.6746 64.9333 78.8773 64.832 79.0266 64.704C79.176 64.5653 79.2506 64.368 79.2506 64.112C79.2506 63.8133 79.192 63.5733 79.0746 63.392C78.968 63.2107 78.824 63.072 78.6426 62.976C78.472 62.88 78.2746 62.816 78.0506 62.784C77.8373 62.752 77.624 62.736 77.4106 62.736C76.8346 62.736 76.3546 62.848 75.9706 63.072C75.5866 63.2853 75.3786 63.696 75.3466 64.304H73.9866C74.008 63.792 74.1146 63.36 74.3066 63.008C74.4986 62.656 74.7546 62.3733 75.0746 62.16C75.3946 61.936 75.7573 61.776 76.1626 61.68C76.5786 61.584 77.0213 61.536 77.4906 61.536C77.864 61.536 78.232 61.5627 78.5946 61.616C78.968 61.6693 79.304 61.7813 79.6026 61.952C79.9013 62.112 80.1413 62.3413 80.3226 62.64C80.504 62.9387 80.5946 63.328 80.5946 63.808V68.064C80.5946 68.384 80.6106 68.6187 80.6426 68.768C80.6853 68.9173 80.8133 68.992 81.0266 68.992C81.144 68.992 81.2826 68.9653 81.4426 68.912V69.968ZM79.2346 65.728C79.064 65.856 78.84 65.952 78.5626 66.016C78.2853 66.0693 77.992 66.1173 77.6826 66.16C77.384 66.192 77.08 66.2347 76.7706 66.288C76.4613 66.3307 76.184 66.4053 75.9386 66.512C75.6933 66.6187 75.4906 66.7733 75.3306 66.976C75.1813 67.168 75.1066 67.4347 75.1066 67.776C75.1066 68 75.1493 68.192 75.2346 68.352C75.3306 68.5013 75.448 68.624 75.5866 68.72C75.736 68.816 75.9066 68.8853 76.0986 68.928C76.2906 68.9707 76.4933 68.992 76.7066 68.992C77.1546 68.992 77.5386 68.9333 77.8586 68.816C78.1786 68.688 78.44 68.5333 78.6426 68.352C78.8453 68.16 78.9946 67.9573 79.0906 67.744C79.1866 67.52 79.2346 67.312 79.2346 67.12V65.728ZM82.9564 58.576H84.3164V62.848H84.3484C84.5724 62.3893 84.9244 62.0587 85.4044 61.856C85.8844 61.6427 86.4124 61.536 86.9884 61.536C87.6284 61.536 88.183 61.6533 88.6524 61.888C89.1324 62.1227 89.527 62.4427 89.8364 62.848C90.1564 63.2427 90.3964 63.7013 90.5564 64.224C90.7164 64.7467 90.7964 65.3013 90.7964 65.888C90.7964 66.4747 90.7164 67.0293 90.5564 67.552C90.407 68.0747 90.1724 68.5333 89.8524 68.928C89.543 69.312 89.1484 69.616 88.6684 69.84C88.199 70.064 87.6497 70.176 87.0204 70.176C86.8177 70.176 86.5884 70.1547 86.3324 70.112C86.087 70.0693 85.8417 70 85.5964 69.904C85.351 69.808 85.1164 69.68 84.8924 69.52C84.679 69.3493 84.4977 69.1413 84.3484 68.896H84.3164V70H82.9564V58.576ZM89.3564 65.792C89.3564 65.408 89.303 65.0347 89.1964 64.672C89.1004 64.2987 88.9457 63.968 88.7324 63.68C88.5297 63.392 88.263 63.1627 87.9324 62.992C87.6124 62.8213 87.2337 62.736 86.7964 62.736C86.3377 62.736 85.9484 62.8267 85.6284 63.008C85.3084 63.1893 85.047 63.4293 84.8444 63.728C84.6417 64.016 84.4924 64.3467 84.3964 64.72C84.311 65.0933 84.2684 65.472 84.2684 65.856C84.2684 66.2613 84.3164 66.656 84.4124 67.04C84.5084 67.4133 84.6577 67.744 84.8604 68.032C85.0737 68.32 85.3457 68.5547 85.6764 68.736C86.007 68.9067 86.407 68.992 86.8764 68.992C87.3457 68.992 87.735 68.9013 88.0444 68.72C88.3644 68.5387 88.6204 68.2987 88.8124 68C89.0044 67.7013 89.143 67.36 89.2284 66.976C89.3137 66.592 89.3564 66.1973 89.3564 65.792ZM98.3368 65.072C98.3154 64.752 98.2408 64.448 98.1128 64.16C97.9954 63.872 97.8301 63.6267 97.6168 63.424C97.4141 63.2107 97.1688 63.0453 96.8808 62.928C96.6034 62.8 96.2941 62.736 95.9528 62.736C95.6008 62.736 95.2808 62.8 94.9928 62.928C94.7154 63.0453 94.4754 63.2107 94.2728 63.424C94.0701 63.6373 93.9101 63.888 93.7928 64.176C93.6754 64.4533 93.6061 64.752 93.5848 65.072H98.3368ZM99.6488 67.376C99.4674 68.304 99.0674 69.0027 98.4488 69.472C97.8301 69.9413 97.0514 70.176 96.1128 70.176C95.4514 70.176 94.8754 70.0693 94.3848 69.856C93.9048 69.6427 93.4994 69.344 93.1688 68.96C92.8381 68.576 92.5874 68.1173 92.4168 67.584C92.2568 67.0507 92.1661 66.4693 92.1448 65.84C92.1448 65.2107 92.2408 64.6347 92.4328 64.112C92.6248 63.5893 92.8914 63.136 93.2328 62.752C93.5848 62.368 93.9954 62.0693 94.4648 61.856C94.9448 61.6427 95.4674 61.536 96.0328 61.536C96.7688 61.536 97.3768 61.6907 97.8568 62C98.3474 62.2987 98.7368 62.6827 99.0248 63.152C99.3234 63.6213 99.5261 64.1333 99.6328 64.688C99.7501 65.2427 99.7981 65.7707 99.7768 66.272H93.5848C93.5741 66.6347 93.6168 66.9813 93.7128 67.312C93.8088 67.632 93.9634 67.92 94.1768 68.176C94.3901 68.4213 94.6621 68.6187 94.9928 68.768C95.3234 68.9173 95.7128 68.992 96.1608 68.992C96.7368 68.992 97.2061 68.8587 97.5688 68.592C97.9421 68.3253 98.1874 67.92 98.3048 67.376H99.6488ZM101.466 58.576H102.826V70H101.466V58.576Z" fill="#EEEEEE"/>
<line x1="12" y1="87.5" x2="316" y2="87.5" stroke="white" stroke-opacity="0.2"/>
<g clip-path="url(#clip0_3328_10030)">
<path fill-rule="evenodd" clip-rule="evenodd" d="M48 120C48 126.627 42.6274 132 36 132C29.3726 132 24 126.627 24 120C24 113.373 29.3726 108 36 108C42.6274 108 48 113.373 48 120ZM45.5999 120C45.5999 125.302 41.3018 129.6 35.9999 129.6C30.6979 129.6 26.3999 125.302 26.3999 120C26.3999 114.698 30.6979 110.4 35.9999 110.4C41.3018 110.4 45.5999 114.698 45.5999 120ZM31.2 120C31.2 117.312 33.312 115.2 36 115.2C38.688 115.2 40.8 117.312 40.8 120C40.8 122.688 38.688 124.8 36 124.8C33.312 124.8 31.2 122.688 31.2 120Z" fill="#FF7900"/>
</g>
<path d="M65.248 114.576H66.768V124.72H72.816V126H65.248V114.576ZM81.4426 125.968C81.208 126.107 80.8826 126.176 80.4666 126.176C80.1146 126.176 79.832 126.08 79.6186 125.888C79.416 125.685 79.3146 125.36 79.3146 124.912C78.9413 125.36 78.504 125.685 78.0026 125.888C77.512 126.08 76.9786 126.176 76.4026 126.176C76.0293 126.176 75.672 126.133 75.3306 126.048C75 125.963 74.712 125.829 74.4666 125.648C74.2213 125.467 74.024 125.232 73.8746 124.944C73.736 124.645 73.6666 124.288 73.6666 123.872C73.6666 123.403 73.7466 123.019 73.9066 122.72C74.0666 122.421 74.2746 122.181 74.5306 122C74.7973 121.808 75.096 121.664 75.4266 121.568C75.768 121.472 76.1146 121.392 76.4666 121.328C76.84 121.253 77.192 121.2 77.5226 121.168C77.864 121.125 78.1626 121.072 78.4186 121.008C78.6746 120.933 78.8773 120.832 79.0266 120.704C79.176 120.565 79.2506 120.368 79.2506 120.112C79.2506 119.813 79.192 119.573 79.0746 119.392C78.968 119.211 78.824 119.072 78.6426 118.976C78.472 118.88 78.2746 118.816 78.0506 118.784C77.8373 118.752 77.624 118.736 77.4106 118.736C76.8346 118.736 76.3546 118.848 75.9706 119.072C75.5866 119.285 75.3786 119.696 75.3466 120.304H73.9866C74.008 119.792 74.1146 119.36 74.3066 119.008C74.4986 118.656 74.7546 118.373 75.0746 118.16C75.3946 117.936 75.7573 117.776 76.1626 117.68C76.5786 117.584 77.0213 117.536 77.4906 117.536C77.864 117.536 78.232 117.563 78.5946 117.616C78.968 117.669 79.304 117.781 79.6026 117.952C79.9013 118.112 80.1413 118.341 80.3226 118.64C80.504 118.939 80.5946 119.328 80.5946 119.808V124.064C80.5946 124.384 80.6106 124.619 80.6426 124.768C80.6853 124.917 80.8133 124.992 81.0266 124.992C81.144 124.992 81.2826 124.965 81.4426 124.912V125.968ZM79.2346 121.728C79.064 121.856 78.84 121.952 78.5626 122.016C78.2853 122.069 77.992 122.117 77.6826 122.16C77.384 122.192 77.08 122.235 76.7706 122.288C76.4613 122.331 76.184 122.405 75.9386 122.512C75.6933 122.619 75.4906 122.773 75.3306 122.976C75.1813 123.168 75.1066 123.435 75.1066 123.776C75.1066 124 75.1493 124.192 75.2346 124.352C75.3306 124.501 75.448 124.624 75.5866 124.72C75.736 124.816 75.9066 124.885 76.0986 124.928C76.2906 124.971 76.4933 124.992 76.7066 124.992C77.1546 124.992 77.5386 124.933 77.8586 124.816C78.1786 124.688 78.44 124.533 78.6426 124.352C78.8453 124.16 78.9946 123.957 79.0906 123.744C79.1866 123.52 79.2346 123.312 79.2346 123.12V121.728ZM82.9564 114.576H84.3164V118.848H84.3484C84.5724 118.389 84.9244 118.059 85.4044 117.856C85.8844 117.643 86.4124 117.536 86.9884 117.536C87.6284 117.536 88.183 117.653 88.6524 117.888C89.1324 118.123 89.527 118.443 89.8364 118.848C90.1564 119.243 90.3964 119.701 90.5564 120.224C90.7164 120.747 90.7964 121.301 90.7964 121.888C90.7964 122.475 90.7164 123.029 90.5564 123.552C90.407 124.075 90.1724 124.533 89.8524 124.928C89.543 125.312 89.1484 125.616 88.6684 125.84C88.199 126.064 87.6497 126.176 87.0204 126.176C86.8177 126.176 86.5884 126.155 86.3324 126.112C86.087 126.069 85.8417 126 85.5964 125.904C85.351 125.808 85.1164 125.68 84.8924 125.52C84.679 125.349 84.4977 125.141 84.3484 124.896H84.3164V126H82.9564V114.576ZM89.3564 121.792C89.3564 121.408 89.303 121.035 89.1964 120.672C89.1004 120.299 88.9457 119.968 88.7324 119.68C88.5297 119.392 88.263 119.163 87.9324 118.992C87.6124 118.821 87.2337 118.736 86.7964 118.736C86.3377 118.736 85.9484 118.827 85.6284 119.008C85.3084 119.189 85.047 119.429 84.8444 119.728C84.6417 120.016 84.4924 120.347 84.3964 120.72C84.311 121.093 84.2684 121.472 84.2684 121.856C84.2684 122.261 84.3164 122.656 84.4124 123.04C84.5084 123.413 84.6577 123.744 84.8604 124.032C85.0737 124.32 85.3457 124.555 85.6764 124.736C86.007 124.907 86.407 124.992 86.8764 124.992C87.3457 124.992 87.735 124.901 88.0444 124.72C88.3644 124.539 88.6204 124.299 88.8124 124C89.0044 123.701 89.143 123.36 89.2284 122.976C89.3137 122.592 89.3564 122.197 89.3564 121.792ZM98.3368 121.072C98.3154 120.752 98.2408 120.448 98.1128 120.16C97.9954 119.872 97.8301 119.627 97.6168 119.424C97.4141 119.211 97.1688 119.045 96.8808 118.928C96.6034 118.8 96.2941 118.736 95.9528 118.736C95.6008 118.736 95.2808 118.8 94.9928 118.928C94.7154 119.045 94.4754 119.211 94.2728 119.424C94.0701 119.637 93.9101 119.888 93.7928 120.176C93.6754 120.453 93.6061 120.752 93.5848 121.072H98.3368ZM99.6488 123.376C99.4674 124.304 99.0674 125.003 98.4488 125.472C97.8301 125.941 97.0514 126.176 96.1128 126.176C95.4514 126.176 94.8754 126.069 94.3848 125.856C93.9048 125.643 93.4994 125.344 93.1688 124.96C92.8381 124.576 92.5874 124.117 92.4168 123.584C92.2568 123.051 92.1661 122.469 92.1448 121.84C92.1448 121.211 92.2408 120.635 92.4328 120.112C92.6248 119.589 92.8914 119.136 93.2328 118.752C93.5848 118.368 93.9954 118.069 94.4648 117.856C94.9448 117.643 95.4674 117.536 96.0328 117.536C96.7688 117.536 97.3768 117.691 97.8568 118C98.3474 118.299 98.7368 118.683 99.0248 119.152C99.3234 119.621 99.5261 120.133 99.6328 120.688C99.7501 121.243 99.7981 121.771 99.7768 122.272H93.5848C93.5741 122.635 93.6168 122.981 93.7128 123.312C93.8088 123.632 93.9634 123.92 94.1768 124.176C94.3901 124.421 94.6621 124.619 94.9928 124.768C95.3234 124.917 95.7128 124.992 96.1608 124.992C96.7368 124.992 97.2061 124.859 97.5688 124.592C97.9421 124.325 98.1874 123.92 98.3048 123.376H99.6488ZM101.466 114.576H102.826V126H101.466V114.576Z" fill="#EEEEEE"/>
<line x1="12" y1="143.5" x2="316" y2="143.5" stroke="white" stroke-opacity="0.2"/>
<defs>
<clipPath id="clip0_3328_10030">
<rect x="24" y="108" width="24" height="24" fill="white"/>
</clipPath>
</defs>
</svg>
