<svg width="328" height="185" viewBox="0 0 328 185" fill="none" xmlns="http://www.w3.org/2000/svg">
<g clip-path="url(#clip0_3328_10346)">
<mask id="path-1-inside-1_3328_10346" fill="white">
<path d="M154 64.5713C154 59.0484 158.477 54.5713 164 54.5713C169.523 54.5713 174 59.0484 174 64.5713C174 70.0941 169.523 74.5713 164 74.5713C158.477 74.5713 154 70.0941 154 64.5713Z"/>
</mask>
<path d="M168.063 64.5713C168.063 66.8149 166.244 68.6338 164 68.6338C161.757 68.6338 159.938 66.8149 159.938 64.5713C159.938 62.3276 161.757 60.5088 164 60.5088C166.244 60.5088 168.063 62.3276 168.063 64.5713Z" fill="#FF7900"/>
</g>
<path d="M164 72.5713C159.582 72.5713 156 68.9896 156 64.5713H152C152 71.1987 157.373 76.5713 164 76.5713V72.5713ZM172 64.5713C172 68.9896 168.418 72.5713 164 72.5713V76.5713C170.627 76.5713 176 71.1987 176 64.5713H172ZM164 56.5713C168.418 56.5713 172 60.153 172 64.5713H176C176 57.9439 170.627 52.5713 164 52.5713V56.5713ZM164 52.5713C157.373 52.5713 152 57.9439 152 64.5713H156C156 60.153 159.582 56.5713 164 56.5713V52.5713Z" fill="#FF7900" mask="url(#path-1-inside-1_3328_10346)"/>
<mask id="path-4-inside-2_3328_10346" fill="white">
<path d="M154 120.571C154 115.048 158.477 110.571 164 110.571C169.523 110.571 174 115.048 174 120.571C174 126.094 169.523 130.571 164 130.571C158.477 130.571 154 126.094 154 120.571Z"/>
</mask>
<path d="M164 129.571C159.029 129.571 155 125.542 155 120.571H153C153 126.646 157.925 131.571 164 131.571V129.571ZM173 120.571C173 125.542 168.971 129.571 164 129.571V131.571C170.075 131.571 175 126.646 175 120.571H173ZM164 111.571C168.971 111.571 173 115.601 173 120.571H175C175 114.496 170.075 109.571 164 109.571V111.571ZM164 109.571C157.925 109.571 153 114.496 153 120.571H155C155 115.601 159.029 111.571 164 111.571V109.571Z" fill="white" fill-opacity="0.92" mask="url(#path-4-inside-2_3328_10346)"/>
<defs>
<clipPath id="clip0_3328_10346">
<path d="M154 64.5713C154 59.0484 158.477 54.5713 164 54.5713C169.523 54.5713 174 59.0484 174 64.5713C174 70.0941 169.523 74.5713 164 74.5713C158.477 74.5713 154 70.0941 154 64.5713Z" fill="white"/>
</clipPath>
</defs>
</svg>
