<svg width="328" height="184" viewBox="0 0 328 184" fill="none" xmlns="http://www.w3.org/2000/svg">
<rect width="328" height="184" fill="white" fill-opacity="0.08"/>
<mask id="path-1-inside-1_3328_10050" fill="white">
<path d="M120 72C120 63.1634 127.163 56 136 56H192C200.837 56 208 63.1634 208 72C208 80.8366 200.837 88 192 88H136C127.163 88 120 80.8366 120 72Z"/>
</mask>
<path d="M136 58H192V54H136V58ZM192 86H136V90H192V86ZM136 86C128.268 86 122 79.732 122 72H118C118 81.9411 126.059 90 136 90V86ZM206 72C206 79.732 199.732 86 192 86V90C201.941 90 210 81.9411 210 72H206ZM192 58C199.732 58 206 64.268 206 72H210C210 62.0589 201.941 54 192 54V58ZM136 54C126.059 54 118 62.0589 118 72H122C122 64.268 128.268 58 136 58V54Z" fill="#FF7900" mask="url(#path-1-inside-1_3328_10050)"/>
<path fill-rule="evenodd" clip-rule="evenodd" d="M145.292 69.0466L139.223 76.0466C139.049 76.2468 138.782 76.375 138.482 76.375C138.183 76.375 137.916 76.2467 137.742 76.0465L134.707 72.5466C134.577 72.3968 134.5 72.2068 134.5 72C134.5 71.7584 134.606 71.5396 134.777 71.3813L135.157 71.0313C135.328 70.8729 135.565 70.775 135.827 70.775C136.063 70.775 136.278 70.8545 136.444 70.9858L138.293 72.875L143.903 67.8617C144.072 67.7149 144.3 67.625 144.551 67.625C145.075 67.625 145.5 68.0168 145.5 68.5C145.5 68.7068 145.422 68.8968 145.292 69.0466Z" fill="#FF7900"/>
<path d="M154.966 67.004H157.164V75.152H162.036V77H154.966V67.004ZM163.146 71.988C163.174 71.5213 163.29 71.134 163.496 70.826C163.701 70.518 163.962 70.2707 164.28 70.084C164.597 69.8973 164.952 69.7667 165.344 69.692C165.745 69.608 166.146 69.566 166.548 69.566C166.912 69.566 167.28 69.594 167.654 69.65C168.027 69.6967 168.368 69.7947 168.676 69.944C168.984 70.0933 169.236 70.3033 169.432 70.574C169.628 70.8353 169.726 71.1853 169.726 71.624V75.39C169.726 75.7167 169.744 76.0293 169.782 76.328C169.819 76.6267 169.884 76.8507 169.978 77H167.962C167.924 76.888 167.892 76.776 167.864 76.664C167.845 76.5427 167.831 76.4213 167.822 76.3C167.504 76.6267 167.131 76.8553 166.702 76.986C166.272 77.1167 165.834 77.182 165.386 77.182C165.04 77.182 164.718 77.14 164.42 77.056C164.121 76.972 163.86 76.8413 163.636 76.664C163.412 76.4867 163.234 76.2627 163.104 75.992C162.982 75.7213 162.922 75.3993 162.922 75.026C162.922 74.6153 162.992 74.2793 163.132 74.018C163.281 73.7473 163.468 73.5327 163.692 73.374C163.925 73.2153 164.186 73.0987 164.476 73.024C164.774 72.94 165.073 72.8747 165.372 72.828C165.67 72.7813 165.964 72.744 166.254 72.716C166.543 72.688 166.8 72.646 167.024 72.59C167.248 72.534 167.425 72.4547 167.556 72.352C167.686 72.24 167.747 72.0813 167.738 71.876C167.738 71.6613 167.7 71.4933 167.626 71.372C167.56 71.2413 167.467 71.1433 167.346 71.078C167.234 71.0033 167.098 70.9567 166.94 70.938C166.79 70.91 166.627 70.896 166.45 70.896C166.058 70.896 165.75 70.98 165.526 71.148C165.302 71.316 165.171 71.596 165.134 71.988H163.146ZM167.738 73.458C167.654 73.5327 167.546 73.5933 167.416 73.64C167.294 73.6773 167.159 73.71 167.01 73.738C166.87 73.766 166.72 73.7893 166.562 73.808C166.403 73.8267 166.244 73.85 166.086 73.878C165.936 73.906 165.787 73.9433 165.638 73.99C165.498 74.0367 165.372 74.102 165.26 74.186C165.157 74.2607 165.073 74.3587 165.008 74.48C164.942 74.6013 164.91 74.7553 164.91 74.942C164.91 75.1193 164.942 75.2687 165.008 75.39C165.073 75.5113 165.162 75.6093 165.274 75.684C165.386 75.7493 165.516 75.796 165.666 75.824C165.815 75.852 165.969 75.866 166.128 75.866C166.52 75.866 166.823 75.8007 167.038 75.67C167.252 75.5393 167.411 75.3853 167.514 75.208C167.616 75.0213 167.677 74.8347 167.696 74.648C167.724 74.4613 167.738 74.312 167.738 74.2V73.458ZM176.75 73.388C176.75 73.08 176.717 72.786 176.652 72.506C176.587 72.226 176.484 71.9787 176.344 71.764C176.204 71.5493 176.027 71.3813 175.812 71.26C175.607 71.1293 175.355 71.064 175.056 71.064C174.767 71.064 174.515 71.1293 174.3 71.26C174.085 71.3813 173.908 71.5493 173.768 71.764C173.628 71.9787 173.525 72.226 173.46 72.506C173.395 72.786 173.362 73.08 173.362 73.388C173.362 73.6867 173.395 73.976 173.46 74.256C173.525 74.536 173.628 74.7833 173.768 74.998C173.908 75.2127 174.085 75.3853 174.3 75.516C174.515 75.6373 174.767 75.698 175.056 75.698C175.355 75.698 175.607 75.6373 175.812 75.516C176.027 75.3853 176.204 75.2127 176.344 74.998C176.484 74.7833 176.587 74.536 176.652 74.256C176.717 73.976 176.75 73.6867 176.75 73.388ZM171.444 67.004H173.432V70.644H173.46C173.703 70.2707 174.029 70 174.44 69.832C174.86 69.6547 175.294 69.566 175.742 69.566C176.106 69.566 176.465 69.6407 176.82 69.79C177.175 69.9393 177.492 70.168 177.772 70.476C178.061 70.784 178.295 71.1807 178.472 71.666C178.649 72.142 178.738 72.7113 178.738 73.374C178.738 74.0367 178.649 74.6107 178.472 75.096C178.295 75.572 178.061 75.964 177.772 76.272C177.492 76.58 177.175 76.8087 176.82 76.958C176.465 77.1073 176.106 77.182 175.742 77.182C175.21 77.182 174.734 77.098 174.314 76.93C173.894 76.762 173.577 76.4773 173.362 76.076H173.334V77H171.444V67.004ZM185.049 72.604C184.956 72.1 184.788 71.7173 184.545 71.456C184.312 71.1947 183.953 71.064 183.467 71.064C183.15 71.064 182.884 71.12 182.669 71.232C182.464 71.3347 182.296 71.4653 182.165 71.624C182.044 71.7827 181.955 71.9507 181.899 72.128C181.853 72.3053 181.825 72.464 181.815 72.604H185.049ZM181.815 73.864C181.843 74.508 182.007 74.9747 182.305 75.264C182.604 75.5533 183.033 75.698 183.593 75.698C183.995 75.698 184.34 75.6 184.629 75.404C184.919 75.1987 185.096 74.984 185.161 74.76H186.911C186.631 75.628 186.202 76.2487 185.623 76.622C185.045 76.9953 184.345 77.182 183.523 77.182C182.954 77.182 182.441 77.0933 181.983 76.916C181.526 76.7293 181.139 76.468 180.821 76.132C180.504 75.796 180.257 75.3947 180.079 74.928C179.911 74.4613 179.827 73.948 179.827 73.388C179.827 72.8467 179.916 72.3427 180.093 71.876C180.271 71.4093 180.523 71.008 180.849 70.672C181.176 70.3267 181.563 70.056 182.011 69.86C182.469 69.664 182.973 69.566 183.523 69.566C184.139 69.566 184.676 69.6873 185.133 69.93C185.591 70.1633 185.964 70.4807 186.253 70.882C186.552 71.2833 186.767 71.7407 186.897 72.254C187.028 72.7673 187.075 73.304 187.037 73.864H181.815ZM188.448 67.004H190.436V77H188.448V67.004Z" fill="#EEEEEE"/>
<mask id="path-6-inside-2_3328_10050" fill="white">
<path d="M120 112C120 103.163 127.163 96 136 96H174C182.837 96 190 103.163 190 112C190 120.837 182.837 128 174 128H136C127.163 128 120 120.837 120 112Z"/>
</mask>
<path d="M136 97H174V95H136V97ZM174 127H136V129H174V127ZM136 127C127.716 127 121 120.284 121 112H119C119 121.389 126.611 129 136 129V127ZM189 112C189 120.284 182.284 127 174 127V129C183.389 129 191 121.389 191 112H189ZM174 97C182.284 97 189 103.716 189 112H191C191 102.611 183.389 95 174 95V97ZM136 95C126.611 95 119 102.611 119 112H121C121 103.716 127.716 97 136 97V95Z" fill="white" fill-opacity="0.2" mask="url(#path-6-inside-2_3328_10050)"/>
<path d="M136.966 107.004H139.164V115.152H144.036V117H136.966V107.004ZM145.146 111.988C145.174 111.521 145.29 111.134 145.496 110.826C145.701 110.518 145.962 110.271 146.28 110.084C146.597 109.897 146.952 109.767 147.344 109.692C147.745 109.608 148.146 109.566 148.548 109.566C148.912 109.566 149.28 109.594 149.654 109.65C150.027 109.697 150.368 109.795 150.676 109.944C150.984 110.093 151.236 110.303 151.432 110.574C151.628 110.835 151.726 111.185 151.726 111.624V115.39C151.726 115.717 151.744 116.029 151.782 116.328C151.819 116.627 151.884 116.851 151.978 117H149.962C149.924 116.888 149.892 116.776 149.864 116.664C149.845 116.543 149.831 116.421 149.822 116.3C149.504 116.627 149.131 116.855 148.702 116.986C148.272 117.117 147.834 117.182 147.386 117.182C147.04 117.182 146.718 117.14 146.42 117.056C146.121 116.972 145.86 116.841 145.636 116.664C145.412 116.487 145.234 116.263 145.104 115.992C144.982 115.721 144.922 115.399 144.922 115.026C144.922 114.615 144.992 114.279 145.132 114.018C145.281 113.747 145.468 113.533 145.692 113.374C145.925 113.215 146.186 113.099 146.476 113.024C146.774 112.94 147.073 112.875 147.372 112.828C147.67 112.781 147.964 112.744 148.254 112.716C148.543 112.688 148.8 112.646 149.024 112.59C149.248 112.534 149.425 112.455 149.556 112.352C149.686 112.24 149.747 112.081 149.738 111.876C149.738 111.661 149.7 111.493 149.626 111.372C149.56 111.241 149.467 111.143 149.346 111.078C149.234 111.003 149.098 110.957 148.94 110.938C148.79 110.91 148.627 110.896 148.45 110.896C148.058 110.896 147.75 110.98 147.526 111.148C147.302 111.316 147.171 111.596 147.134 111.988H145.146ZM149.738 113.458C149.654 113.533 149.546 113.593 149.416 113.64C149.294 113.677 149.159 113.71 149.01 113.738C148.87 113.766 148.72 113.789 148.562 113.808C148.403 113.827 148.244 113.85 148.086 113.878C147.936 113.906 147.787 113.943 147.638 113.99C147.498 114.037 147.372 114.102 147.26 114.186C147.157 114.261 147.073 114.359 147.008 114.48C146.942 114.601 146.91 114.755 146.91 114.942C146.91 115.119 146.942 115.269 147.008 115.39C147.073 115.511 147.162 115.609 147.274 115.684C147.386 115.749 147.516 115.796 147.666 115.824C147.815 115.852 147.969 115.866 148.128 115.866C148.52 115.866 148.823 115.801 149.038 115.67C149.252 115.539 149.411 115.385 149.514 115.208C149.616 115.021 149.677 114.835 149.696 114.648C149.724 114.461 149.738 114.312 149.738 114.2V113.458ZM158.75 113.388C158.75 113.08 158.717 112.786 158.652 112.506C158.587 112.226 158.484 111.979 158.344 111.764C158.204 111.549 158.027 111.381 157.812 111.26C157.607 111.129 157.355 111.064 157.056 111.064C156.767 111.064 156.515 111.129 156.3 111.26C156.085 111.381 155.908 111.549 155.768 111.764C155.628 111.979 155.525 112.226 155.46 112.506C155.395 112.786 155.362 113.08 155.362 113.388C155.362 113.687 155.395 113.976 155.46 114.256C155.525 114.536 155.628 114.783 155.768 114.998C155.908 115.213 156.085 115.385 156.3 115.516C156.515 115.637 156.767 115.698 157.056 115.698C157.355 115.698 157.607 115.637 157.812 115.516C158.027 115.385 158.204 115.213 158.344 114.998C158.484 114.783 158.587 114.536 158.652 114.256C158.717 113.976 158.75 113.687 158.75 113.388ZM153.444 107.004H155.432V110.644H155.46C155.703 110.271 156.029 110 156.44 109.832C156.86 109.655 157.294 109.566 157.742 109.566C158.106 109.566 158.465 109.641 158.82 109.79C159.175 109.939 159.492 110.168 159.772 110.476C160.061 110.784 160.295 111.181 160.472 111.666C160.649 112.142 160.738 112.711 160.738 113.374C160.738 114.037 160.649 114.611 160.472 115.096C160.295 115.572 160.061 115.964 159.772 116.272C159.492 116.58 159.175 116.809 158.82 116.958C158.465 117.107 158.106 117.182 157.742 117.182C157.21 117.182 156.734 117.098 156.314 116.93C155.894 116.762 155.577 116.477 155.362 116.076H155.334V117H153.444V107.004ZM167.049 112.604C166.956 112.1 166.788 111.717 166.545 111.456C166.312 111.195 165.953 111.064 165.467 111.064C165.15 111.064 164.884 111.12 164.669 111.232C164.464 111.335 164.296 111.465 164.165 111.624C164.044 111.783 163.955 111.951 163.899 112.128C163.853 112.305 163.825 112.464 163.815 112.604H167.049ZM163.815 113.864C163.843 114.508 164.007 114.975 164.305 115.264C164.604 115.553 165.033 115.698 165.593 115.698C165.995 115.698 166.34 115.6 166.629 115.404C166.919 115.199 167.096 114.984 167.161 114.76H168.911C168.631 115.628 168.202 116.249 167.623 116.622C167.045 116.995 166.345 117.182 165.523 117.182C164.954 117.182 164.441 117.093 163.983 116.916C163.526 116.729 163.139 116.468 162.821 116.132C162.504 115.796 162.257 115.395 162.079 114.928C161.911 114.461 161.827 113.948 161.827 113.388C161.827 112.847 161.916 112.343 162.093 111.876C162.271 111.409 162.523 111.008 162.849 110.672C163.176 110.327 163.563 110.056 164.011 109.86C164.469 109.664 164.973 109.566 165.523 109.566C166.139 109.566 166.676 109.687 167.133 109.93C167.591 110.163 167.964 110.481 168.253 110.882C168.552 111.283 168.767 111.741 168.897 112.254C169.028 112.767 169.075 113.304 169.037 113.864H163.815ZM170.448 107.004H172.436V117H170.448V107.004Z" fill="#EEEEEE"/>
</svg>
