<svg width="328" height="184" viewBox="0 0 328 184" fill="none" xmlns="http://www.w3.org/2000/svg">
<rect width="328" height="184" fill="black" fill-opacity="0.04"/>
<path d="M129 92C129 83.1634 136.163 76 145 76H183C191.837 76 199 83.1634 199 92C199 100.837 191.837 108 183 108H145C136.163 108 129 100.837 129 92Z" fill="#3DE35A"/>
<path d="M145.966 87.004H148.164V95.152H153.036V97H145.966V87.004ZM154.146 91.988C154.174 91.5213 154.29 91.134 154.496 90.826C154.701 90.518 154.962 90.2707 155.28 90.084C155.597 89.8973 155.952 89.7667 156.344 89.692C156.745 89.608 157.146 89.566 157.548 89.566C157.912 89.566 158.28 89.594 158.654 89.65C159.027 89.6967 159.368 89.7947 159.676 89.944C159.984 90.0933 160.236 90.3033 160.432 90.574C160.628 90.8353 160.726 91.1853 160.726 91.624V95.39C160.726 95.7167 160.744 96.0293 160.782 96.328C160.819 96.6267 160.884 96.8507 160.978 97H158.962C158.924 96.888 158.892 96.776 158.864 96.664C158.845 96.5427 158.831 96.4213 158.822 96.3C158.504 96.6267 158.131 96.8553 157.702 96.986C157.272 97.1167 156.834 97.182 156.386 97.182C156.04 97.182 155.718 97.14 155.42 97.056C155.121 96.972 154.86 96.8413 154.636 96.664C154.412 96.4867 154.234 96.2627 154.104 95.992C153.982 95.7213 153.922 95.3993 153.922 95.026C153.922 94.6153 153.992 94.2793 154.132 94.018C154.281 93.7473 154.468 93.5327 154.692 93.374C154.925 93.2153 155.186 93.0987 155.476 93.024C155.774 92.94 156.073 92.8747 156.372 92.828C156.67 92.7813 156.964 92.744 157.254 92.716C157.543 92.688 157.8 92.646 158.024 92.59C158.248 92.534 158.425 92.4547 158.556 92.352C158.686 92.24 158.747 92.0813 158.738 91.876C158.738 91.6613 158.7 91.4933 158.626 91.372C158.56 91.2413 158.467 91.1433 158.346 91.078C158.234 91.0033 158.098 90.9567 157.94 90.938C157.79 90.91 157.627 90.896 157.45 90.896C157.058 90.896 156.75 90.98 156.526 91.148C156.302 91.316 156.171 91.596 156.134 91.988H154.146ZM158.738 93.458C158.654 93.5327 158.546 93.5933 158.416 93.64C158.294 93.6773 158.159 93.71 158.01 93.738C157.87 93.766 157.72 93.7893 157.562 93.808C157.403 93.8267 157.244 93.85 157.086 93.878C156.936 93.906 156.787 93.9433 156.638 93.99C156.498 94.0367 156.372 94.102 156.26 94.186C156.157 94.2607 156.073 94.3587 156.008 94.48C155.942 94.6013 155.91 94.7553 155.91 94.942C155.91 95.1193 155.942 95.2687 156.008 95.39C156.073 95.5113 156.162 95.6093 156.274 95.684C156.386 95.7493 156.516 95.796 156.666 95.824C156.815 95.852 156.969 95.866 157.128 95.866C157.52 95.866 157.823 95.8007 158.038 95.67C158.252 95.5393 158.411 95.3853 158.514 95.208C158.616 95.0213 158.677 94.8347 158.696 94.648C158.724 94.4613 158.738 94.312 158.738 94.2V93.458ZM167.75 93.388C167.75 93.08 167.717 92.786 167.652 92.506C167.587 92.226 167.484 91.9787 167.344 91.764C167.204 91.5493 167.027 91.3813 166.812 91.26C166.607 91.1293 166.355 91.064 166.056 91.064C165.767 91.064 165.515 91.1293 165.3 91.26C165.085 91.3813 164.908 91.5493 164.768 91.764C164.628 91.9787 164.525 92.226 164.46 92.506C164.395 92.786 164.362 93.08 164.362 93.388C164.362 93.6867 164.395 93.976 164.46 94.256C164.525 94.536 164.628 94.7833 164.768 94.998C164.908 95.2127 165.085 95.3853 165.3 95.516C165.515 95.6373 165.767 95.698 166.056 95.698C166.355 95.698 166.607 95.6373 166.812 95.516C167.027 95.3853 167.204 95.2127 167.344 94.998C167.484 94.7833 167.587 94.536 167.652 94.256C167.717 93.976 167.75 93.6867 167.75 93.388ZM162.444 87.004H164.432V90.644H164.46C164.703 90.2707 165.029 90 165.44 89.832C165.86 89.6547 166.294 89.566 166.742 89.566C167.106 89.566 167.465 89.6407 167.82 89.79C168.175 89.9393 168.492 90.168 168.772 90.476C169.061 90.784 169.295 91.1807 169.472 91.666C169.649 92.142 169.738 92.7113 169.738 93.374C169.738 94.0367 169.649 94.6107 169.472 95.096C169.295 95.572 169.061 95.964 168.772 96.272C168.492 96.58 168.175 96.8087 167.82 96.958C167.465 97.1073 167.106 97.182 166.742 97.182C166.21 97.182 165.734 97.098 165.314 96.93C164.894 96.762 164.577 96.4773 164.362 96.076H164.334V97H162.444V87.004ZM176.049 92.604C175.956 92.1 175.788 91.7173 175.545 91.456C175.312 91.1947 174.953 91.064 174.467 91.064C174.15 91.064 173.884 91.12 173.669 91.232C173.464 91.3347 173.296 91.4653 173.165 91.624C173.044 91.7827 172.955 91.9507 172.899 92.128C172.853 92.3053 172.825 92.464 172.815 92.604H176.049ZM172.815 93.864C172.843 94.508 173.007 94.9747 173.305 95.264C173.604 95.5533 174.033 95.698 174.593 95.698C174.995 95.698 175.34 95.6 175.629 95.404C175.919 95.1987 176.096 94.984 176.161 94.76H177.911C177.631 95.628 177.202 96.2487 176.623 96.622C176.045 96.9953 175.345 97.182 174.523 97.182C173.954 97.182 173.441 97.0933 172.983 96.916C172.526 96.7293 172.139 96.468 171.821 96.132C171.504 95.796 171.257 95.3947 171.079 94.928C170.911 94.4613 170.827 93.948 170.827 93.388C170.827 92.8467 170.916 92.3427 171.093 91.876C171.271 91.4093 171.523 91.008 171.849 90.672C172.176 90.3267 172.563 90.056 173.011 89.86C173.469 89.664 173.973 89.566 174.523 89.566C175.139 89.566 175.676 89.6873 176.133 89.93C176.591 90.1633 176.964 90.4807 177.253 90.882C177.552 91.2833 177.767 91.7407 177.897 92.254C178.028 92.7673 178.075 93.304 178.037 93.864H172.815ZM179.448 87.004H181.436V97H179.448V87.004Z" fill="black"/>
</svg>
