<svg width="328" height="184" viewBox="0 0 328 184" fill="none" xmlns="http://www.w3.org/2000/svg">
<rect width="328" height="184" fill="black" fill-opacity="0.04"/>
<g clip-path="url(#clip0_2130_52776)">
<mask id="path-1-inside-1_2130_52776" fill="white">
<path d="M154 64C154 58.4772 158.477 54 164 54C169.523 54 174 58.4772 174 64C174 69.5228 169.523 74 164 74C158.477 74 154 69.5228 154 64Z"/>
</mask>
<path d="M168.063 64C168.063 66.2437 166.244 68.0625 164 68.0625C161.757 68.0625 159.938 66.2437 159.938 64C159.938 61.7563 161.757 59.9375 164 59.9375C166.244 59.9375 168.063 61.7563 168.063 64Z" fill="#F15E00"/>
</g>
<path d="M164 72C159.582 72 156 68.4183 156 64H152C152 70.6274 157.373 76 164 76V72ZM172 64C172 68.4183 168.418 72 164 72V76C170.627 76 176 70.6274 176 64H172ZM164 56C168.418 56 172 59.5817 172 64H176C176 57.3726 170.627 52 164 52V56ZM164 52C157.373 52 152 57.3726 152 64H156C156 59.5817 159.582 56 164 56V52Z" fill="#F15E00" mask="url(#path-1-inside-1_2130_52776)"/>
<mask id="path-4-inside-2_2130_52776" fill="white">
<path d="M154 120C154 114.477 158.477 110 164 110C169.523 110 174 114.477 174 120C174 125.523 169.523 130 164 130C158.477 130 154 125.523 154 120Z"/>
</mask>
<path d="M164 129C159.029 129 155 124.971 155 120H153C153 126.075 157.925 131 164 131V129ZM173 120C173 124.971 168.971 129 164 129V131C170.075 131 175 126.075 175 120H173ZM164 111C168.971 111 173 115.029 173 120H175C175 113.925 170.075 109 164 109V111ZM164 109C157.925 109 153 113.925 153 120H155C155 115.029 159.029 111 164 111V109Z" fill="black" mask="url(#path-4-inside-2_2130_52776)"/>
<defs>
<clipPath id="clip0_2130_52776">
<path d="M154 64C154 58.4772 158.477 54 164 54C169.523 54 174 58.4772 174 64C174 69.5228 169.523 74 164 74C158.477 74 154 69.5228 154 64Z" fill="white"/>
</clipPath>
</defs>
</svg>
