<svg width="328" height="184" viewBox="0 0 328 184" fill="none" xmlns="http://www.w3.org/2000/svg">
<rect width="328" height="184" fill="black" fill-opacity="0.04"/>
<g clip-path="url(#clip0_2130_39109)">
<mask id="path-1-inside-1_2130_39109" fill="white">
<path d="M154 54H174V74H154V54Z"/>
</mask>
<path fill-rule="evenodd" clip-rule="evenodd" d="M169.262 61.0466L163.228 68.0466C163.055 68.2468 162.789 68.375 162.491 68.375C162.193 68.375 161.928 68.2467 161.755 68.0465L158.738 64.5466C158.609 64.3968 158.531 64.2068 158.531 64C158.531 63.7584 158.637 63.5396 158.807 63.3813L159.185 63.0313C159.355 62.8729 159.591 62.775 159.851 62.775C160.086 62.775 160.3 62.8545 160.465 62.9858L162.303 64.875L167.881 59.8617C168.05 59.7149 168.276 59.625 168.526 59.625C169.047 59.625 169.469 60.0168 169.469 60.5C169.469 60.7068 169.391 60.8968 169.262 61.0466Z" fill="#F15E00"/>
</g>
<path d="M154 54V52H152V54H154ZM174 54H176V52H174V54ZM174 74V76H176V74H174ZM154 74H152V76H154V74ZM154 56H174V52H154V56ZM172 54V74H176V54H172ZM174 72H154V76H174V72ZM156 74V54H152V74H156Z" fill="#F15E00" mask="url(#path-1-inside-1_2130_39109)"/>
<mask id="path-5-inside-2_2130_39109" fill="white">
<path d="M154 110H174V130H154V110Z"/>
</mask>
<path d="M154 110V109H153V110H154ZM174 110H175V109H174V110ZM174 130V131H175V130H174ZM154 130H153V131H154V130ZM154 111H174V109H154V111ZM173 110V130H175V110H173ZM174 129H154V131H174V129ZM155 130V110H153V130H155Z" fill="black" mask="url(#path-5-inside-2_2130_39109)"/>
<defs>
<clipPath id="clip0_2130_39109">
<path d="M154 54H174V74H154V54Z" fill="white"/>
</clipPath>
</defs>
</svg>
