<svg width="327" height="184" viewBox="0 0 327 184" fill="none" xmlns="http://www.w3.org/2000/svg">
<rect width="327" height="184" fill="black" fill-opacity="0.04"/>
<rect width="107" height="48" transform="translate(110 100)" fill="black"/>
<path d="M143.321 118.576H145.833V127.888H151.401V130H143.321V118.576ZM152.67 124.272C152.702 123.739 152.835 123.296 153.07 122.944C153.304 122.592 153.603 122.309 153.966 122.096C154.328 121.883 154.734 121.733 155.182 121.648C155.64 121.552 156.099 121.504 156.558 121.504C156.974 121.504 157.395 121.536 157.822 121.6C158.248 121.653 158.638 121.765 158.99 121.936C159.342 122.107 159.63 122.347 159.854 122.656C160.078 122.955 160.19 123.355 160.19 123.856V128.16C160.19 128.533 160.211 128.891 160.254 129.232C160.296 129.573 160.371 129.829 160.478 130H158.174C158.131 129.872 158.094 129.744 158.062 129.616C158.04 129.477 158.024 129.339 158.014 129.2C157.651 129.573 157.224 129.835 156.734 129.984C156.243 130.133 155.742 130.208 155.23 130.208C154.835 130.208 154.467 130.16 154.126 130.064C153.784 129.968 153.486 129.819 153.23 129.616C152.974 129.413 152.771 129.157 152.622 128.848C152.483 128.539 152.414 128.171 152.414 127.744C152.414 127.275 152.494 126.891 152.654 126.592C152.824 126.283 153.038 126.037 153.294 125.856C153.56 125.675 153.859 125.541 154.19 125.456C154.531 125.36 154.872 125.285 155.214 125.232C155.555 125.179 155.891 125.136 156.222 125.104C156.552 125.072 156.846 125.024 157.102 124.96C157.358 124.896 157.56 124.805 157.71 124.688C157.859 124.56 157.928 124.379 157.918 124.144C157.918 123.899 157.875 123.707 157.79 123.568C157.715 123.419 157.608 123.307 157.47 123.232C157.342 123.147 157.187 123.093 157.006 123.072C156.835 123.04 156.648 123.024 156.446 123.024C155.998 123.024 155.646 123.12 155.39 123.312C155.134 123.504 154.984 123.824 154.942 124.272H152.67ZM157.918 125.952C157.822 126.037 157.699 126.107 157.55 126.16C157.411 126.203 157.256 126.24 157.086 126.272C156.926 126.304 156.755 126.331 156.574 126.352C156.392 126.373 156.211 126.4 156.03 126.432C155.859 126.464 155.688 126.507 155.518 126.56C155.358 126.613 155.214 126.688 155.086 126.784C154.968 126.869 154.872 126.981 154.798 127.12C154.723 127.259 154.686 127.435 154.686 127.648C154.686 127.851 154.723 128.021 154.798 128.16C154.872 128.299 154.974 128.411 155.102 128.496C155.23 128.571 155.379 128.624 155.55 128.656C155.72 128.688 155.896 128.704 156.078 128.704C156.526 128.704 156.872 128.629 157.118 128.48C157.363 128.331 157.544 128.155 157.662 127.952C157.779 127.739 157.848 127.525 157.87 127.312C157.902 127.099 157.918 126.928 157.918 126.8V125.952ZM168.217 125.872C168.217 125.52 168.18 125.184 168.105 124.864C168.03 124.544 167.913 124.261 167.753 124.016C167.593 123.771 167.39 123.579 167.145 123.44C166.91 123.291 166.622 123.216 166.281 123.216C165.95 123.216 165.662 123.291 165.417 123.44C165.172 123.579 164.969 123.771 164.809 124.016C164.649 124.261 164.532 124.544 164.457 124.864C164.382 125.184 164.345 125.52 164.345 125.872C164.345 126.213 164.382 126.544 164.457 126.864C164.532 127.184 164.649 127.467 164.809 127.712C164.969 127.957 165.172 128.155 165.417 128.304C165.662 128.443 165.95 128.512 166.281 128.512C166.622 128.512 166.91 128.443 167.145 128.304C167.39 128.155 167.593 127.957 167.753 127.712C167.913 127.467 168.03 127.184 168.105 126.864C168.18 126.544 168.217 126.213 168.217 125.872ZM162.153 118.576H164.425V122.736H164.457C164.734 122.309 165.108 122 165.577 121.808C166.057 121.605 166.553 121.504 167.065 121.504C167.481 121.504 167.892 121.589 168.297 121.76C168.702 121.931 169.065 122.192 169.385 122.544C169.716 122.896 169.982 123.349 170.185 123.904C170.388 124.448 170.489 125.099 170.489 125.856C170.489 126.613 170.388 127.269 170.185 127.824C169.982 128.368 169.716 128.816 169.385 129.168C169.065 129.52 168.702 129.781 168.297 129.952C167.892 130.123 167.481 130.208 167.065 130.208C166.457 130.208 165.913 130.112 165.433 129.92C164.953 129.728 164.59 129.403 164.345 128.944H164.313V130H162.153V118.576ZM177.702 124.976C177.596 124.4 177.404 123.963 177.126 123.664C176.86 123.365 176.449 123.216 175.894 123.216C175.532 123.216 175.228 123.28 174.982 123.408C174.748 123.525 174.556 123.675 174.406 123.856C174.268 124.037 174.166 124.229 174.102 124.432C174.049 124.635 174.017 124.816 174.006 124.976H177.702ZM174.006 126.416C174.038 127.152 174.225 127.685 174.566 128.016C174.908 128.347 175.398 128.512 176.038 128.512C176.497 128.512 176.892 128.4 177.222 128.176C177.553 127.941 177.756 127.696 177.83 127.44H179.83C179.51 128.432 179.02 129.141 178.358 129.568C177.697 129.995 176.897 130.208 175.958 130.208C175.308 130.208 174.721 130.107 174.198 129.904C173.676 129.691 173.233 129.392 172.87 129.008C172.508 128.624 172.225 128.165 172.022 127.632C171.83 127.099 171.734 126.512 171.734 125.872C171.734 125.253 171.836 124.677 172.038 124.144C172.241 123.611 172.529 123.152 172.902 122.768C173.276 122.373 173.718 122.064 174.23 121.84C174.753 121.616 175.329 121.504 175.958 121.504C176.662 121.504 177.276 121.643 177.798 121.92C178.321 122.187 178.748 122.549 179.078 123.008C179.42 123.467 179.665 123.989 179.814 124.576C179.964 125.163 180.017 125.776 179.974 126.416H174.006ZM181.586 118.576H183.858V130H181.586V118.576Z" fill="white"/>
<mask id="path-2-inside-1_683_14930" fill="white">
<path d="M110 36H217V84H110V36Z"/>
</mask>
<path d="M110 36V35H109V36H110ZM217 36H218V35H217V36ZM217 84V85H218V84H217ZM110 84H109V85H110V84ZM110 37H217V35H110V37ZM216 36V84H218V36H216ZM217 83H110V85H217V83ZM111 84V36H109V84H111Z" fill="black" mask="url(#path-2-inside-1_683_14930)"/>
<path d="M143.321 54.576H145.833V63.888H151.401V66H143.321V54.576ZM152.67 60.272C152.702 59.7387 152.835 59.296 153.07 58.944C153.304 58.592 153.603 58.3093 153.966 58.096C154.328 57.8827 154.734 57.7333 155.182 57.648C155.64 57.552 156.099 57.504 156.558 57.504C156.974 57.504 157.395 57.536 157.822 57.6C158.248 57.6533 158.638 57.7653 158.99 57.936C159.342 58.1067 159.63 58.3467 159.854 58.656C160.078 58.9547 160.19 59.3547 160.19 59.856V64.16C160.19 64.5333 160.211 64.8907 160.254 65.232C160.296 65.5733 160.371 65.8293 160.478 66H158.174C158.131 65.872 158.094 65.744 158.062 65.616C158.04 65.4773 158.024 65.3387 158.014 65.2C157.651 65.5733 157.224 65.8347 156.734 65.984C156.243 66.1333 155.742 66.208 155.23 66.208C154.835 66.208 154.467 66.16 154.126 66.064C153.784 65.968 153.486 65.8187 153.23 65.616C152.974 65.4133 152.771 65.1573 152.622 64.848C152.483 64.5387 152.414 64.1707 152.414 63.744C152.414 63.2747 152.494 62.8907 152.654 62.592C152.824 62.2827 153.038 62.0373 153.294 61.856C153.56 61.6747 153.859 61.5413 154.19 61.456C154.531 61.36 154.872 61.2853 155.214 61.232C155.555 61.1787 155.891 61.136 156.222 61.104C156.552 61.072 156.846 61.024 157.102 60.96C157.358 60.896 157.56 60.8053 157.71 60.688C157.859 60.56 157.928 60.3787 157.918 60.144C157.918 59.8987 157.875 59.7067 157.79 59.568C157.715 59.4187 157.608 59.3067 157.47 59.232C157.342 59.1467 157.187 59.0933 157.006 59.072C156.835 59.04 156.648 59.024 156.446 59.024C155.998 59.024 155.646 59.12 155.39 59.312C155.134 59.504 154.984 59.824 154.942 60.272H152.67ZM157.918 61.952C157.822 62.0373 157.699 62.1067 157.55 62.16C157.411 62.2027 157.256 62.24 157.086 62.272C156.926 62.304 156.755 62.3307 156.574 62.352C156.392 62.3733 156.211 62.4 156.03 62.432C155.859 62.464 155.688 62.5067 155.518 62.56C155.358 62.6133 155.214 62.688 155.086 62.784C154.968 62.8693 154.872 62.9813 154.798 63.12C154.723 63.2587 154.686 63.4347 154.686 63.648C154.686 63.8507 154.723 64.0213 154.798 64.16C154.872 64.2987 154.974 64.4107 155.102 64.496C155.23 64.5707 155.379 64.624 155.55 64.656C155.72 64.688 155.896 64.704 156.078 64.704C156.526 64.704 156.872 64.6293 157.118 64.48C157.363 64.3307 157.544 64.1547 157.662 63.952C157.779 63.7387 157.848 63.5253 157.87 63.312C157.902 63.0987 157.918 62.928 157.918 62.8V61.952ZM168.217 61.872C168.217 61.52 168.18 61.184 168.105 60.864C168.03 60.544 167.913 60.2613 167.753 60.016C167.593 59.7707 167.39 59.5787 167.145 59.44C166.91 59.2907 166.622 59.216 166.281 59.216C165.95 59.216 165.662 59.2907 165.417 59.44C165.172 59.5787 164.969 59.7707 164.809 60.016C164.649 60.2613 164.532 60.544 164.457 60.864C164.382 61.184 164.345 61.52 164.345 61.872C164.345 62.2133 164.382 62.544 164.457 62.864C164.532 63.184 164.649 63.4667 164.809 63.712C164.969 63.9573 165.172 64.1547 165.417 64.304C165.662 64.4427 165.95 64.512 166.281 64.512C166.622 64.512 166.91 64.4427 167.145 64.304C167.39 64.1547 167.593 63.9573 167.753 63.712C167.913 63.4667 168.03 63.184 168.105 62.864C168.18 62.544 168.217 62.2133 168.217 61.872ZM162.153 54.576H164.425V58.736H164.457C164.734 58.3093 165.108 58 165.577 57.808C166.057 57.6053 166.553 57.504 167.065 57.504C167.481 57.504 167.892 57.5893 168.297 57.76C168.702 57.9307 169.065 58.192 169.385 58.544C169.716 58.896 169.982 59.3493 170.185 59.904C170.388 60.448 170.489 61.0987 170.489 61.856C170.489 62.6133 170.388 63.2693 170.185 63.824C169.982 64.368 169.716 64.816 169.385 65.168C169.065 65.52 168.702 65.7813 168.297 65.952C167.892 66.1227 167.481 66.208 167.065 66.208C166.457 66.208 165.913 66.112 165.433 65.92C164.953 65.728 164.59 65.4027 164.345 64.944H164.313V66H162.153V54.576ZM177.702 60.976C177.596 60.4 177.404 59.9627 177.126 59.664C176.86 59.3653 176.449 59.216 175.894 59.216C175.532 59.216 175.228 59.28 174.982 59.408C174.748 59.5253 174.556 59.6747 174.406 59.856C174.268 60.0373 174.166 60.2293 174.102 60.432C174.049 60.6347 174.017 60.816 174.006 60.976H177.702ZM174.006 62.416C174.038 63.152 174.225 63.6853 174.566 64.016C174.908 64.3467 175.398 64.512 176.038 64.512C176.497 64.512 176.892 64.4 177.222 64.176C177.553 63.9413 177.756 63.696 177.83 63.44H179.83C179.51 64.432 179.02 65.1413 178.358 65.568C177.697 65.9947 176.897 66.208 175.958 66.208C175.308 66.208 174.721 66.1067 174.198 65.904C173.676 65.6907 173.233 65.392 172.87 65.008C172.508 64.624 172.225 64.1653 172.022 63.632C171.83 63.0987 171.734 62.512 171.734 61.872C171.734 61.2533 171.836 60.6773 172.038 60.144C172.241 59.6107 172.529 59.152 172.902 58.768C173.276 58.3733 173.718 58.064 174.23 57.84C174.753 57.616 175.329 57.504 175.958 57.504C176.662 57.504 177.276 57.6427 177.798 57.92C178.321 58.1867 178.748 58.5493 179.078 59.008C179.42 59.4667 179.665 59.9893 179.814 60.576C179.964 61.1627 180.017 61.776 179.974 62.416H174.006ZM181.586 54.576H183.858V66H181.586V54.576Z" fill="black"/>
</svg>
