<svg width="328" height="184" viewBox="0 0 328 184" fill="none" xmlns="http://www.w3.org/2000/svg">
<rect width="328" height="184" fill="black" fill-opacity="0.04"/>
<mask id="path-1-inside-1_3328_10267" fill="white">
<path d="M79 92.5713C79 83.7347 86.1634 76.5713 95 76.5713H151C159.837 76.5713 167 83.7347 167 92.5713C167 101.408 159.837 108.571 151 108.571H95C86.1634 108.571 79 101.408 79 92.5713Z"/>
</mask>
<path d="M95 78.5713H151V74.5713H95V78.5713ZM151 106.571H95V110.571H151V106.571ZM95 106.571C87.268 106.571 81 100.303 81 92.5713H77C77 102.512 85.0589 110.571 95 110.571V106.571ZM165 92.5713C165 100.303 158.732 106.571 151 106.571V110.571C160.941 110.571 169 102.512 169 92.5713H165ZM151 78.5713C158.732 78.5713 165 84.8393 165 92.5713H169C169 82.6302 160.941 74.5713 151 74.5713V78.5713ZM95 74.5713C85.0589 74.5713 77 82.6302 77 92.5713H81C81 84.8393 87.268 78.5713 95 78.5713V74.5713Z" fill="#F15E00" mask="url(#path-1-inside-1_3328_10267)"/>
<path fill-rule="evenodd" clip-rule="evenodd" d="M104.292 89.6179L98.2227 96.6179C98.049 96.8181 97.7818 96.9463 97.4823 96.9463C97.1827 96.9463 96.9157 96.818 96.7419 96.6178L93.7073 93.1179C93.5773 92.9681 93.4995 92.7781 93.4995 92.5713C93.4995 92.3297 93.6056 92.1109 93.7772 91.9526L94.1566 91.6026C94.3282 91.4442 94.5652 91.3463 94.8271 91.3463C95.0628 91.3463 95.2782 91.4258 95.4441 91.5571L97.2926 93.4463L102.903 88.433C103.072 88.2862 103.3 88.1963 103.551 88.1963C104.075 88.1963 104.5 88.588 104.5 89.0713C104.5 89.2781 104.422 89.4681 104.292 89.6179Z" fill="#F15E00"/>
<path d="M113.966 87.5753H116.164V95.7233H121.036V97.5713H113.966V87.5753ZM122.146 92.5593C122.174 92.0926 122.29 91.7053 122.496 91.3973C122.701 91.0893 122.962 90.842 123.28 90.6553C123.597 90.4686 123.952 90.338 124.344 90.2633C124.745 90.1793 125.146 90.1373 125.548 90.1373C125.912 90.1373 126.28 90.1653 126.654 90.2213C127.027 90.268 127.368 90.366 127.676 90.5153C127.984 90.6646 128.236 90.8746 128.432 91.1453C128.628 91.4066 128.726 91.7566 128.726 92.1953V95.9613C128.726 96.288 128.744 96.6006 128.782 96.8993C128.819 97.198 128.884 97.422 128.978 97.5713H126.962C126.924 97.4593 126.892 97.3473 126.864 97.2353C126.845 97.114 126.831 96.9926 126.822 96.8713C126.504 97.198 126.131 97.4266 125.702 97.5573C125.272 97.688 124.834 97.7533 124.386 97.7533C124.04 97.7533 123.718 97.7113 123.42 97.6273C123.121 97.5433 122.86 97.4126 122.636 97.2353C122.412 97.058 122.234 96.834 122.104 96.5633C121.982 96.2926 121.922 95.9706 121.922 95.5973C121.922 95.1866 121.992 94.8506 122.132 94.5893C122.281 94.3186 122.468 94.104 122.692 93.9453C122.925 93.7866 123.186 93.67 123.476 93.5953C123.774 93.5113 124.073 93.446 124.372 93.3993C124.67 93.3526 124.964 93.3153 125.254 93.2873C125.543 93.2593 125.8 93.2173 126.024 93.1613C126.248 93.1053 126.425 93.026 126.556 92.9233C126.686 92.8113 126.747 92.6526 126.738 92.4473C126.738 92.2326 126.7 92.0646 126.626 91.9433C126.56 91.8126 126.467 91.7146 126.346 91.6493C126.234 91.5746 126.098 91.528 125.94 91.5093C125.79 91.4813 125.627 91.4673 125.45 91.4673C125.058 91.4673 124.75 91.5513 124.526 91.7193C124.302 91.8873 124.171 92.1673 124.134 92.5593H122.146ZM126.738 94.0293C126.654 94.104 126.546 94.1646 126.416 94.2113C126.294 94.2486 126.159 94.2813 126.01 94.3093C125.87 94.3373 125.72 94.3606 125.562 94.3793C125.403 94.398 125.244 94.4213 125.086 94.4493C124.936 94.4773 124.787 94.5146 124.638 94.5613C124.498 94.608 124.372 94.6733 124.26 94.7573C124.157 94.832 124.073 94.93 124.008 95.0513C123.942 95.1726 123.91 95.3266 123.91 95.5133C123.91 95.6906 123.942 95.84 124.008 95.9613C124.073 96.0826 124.162 96.1806 124.274 96.2553C124.386 96.3206 124.516 96.3673 124.666 96.3953C124.815 96.4233 124.969 96.4373 125.128 96.4373C125.52 96.4373 125.823 96.372 126.038 96.2413C126.252 96.1106 126.411 95.9566 126.514 95.7793C126.616 95.5926 126.677 95.406 126.696 95.2193C126.724 95.0326 126.738 94.8833 126.738 94.7713V94.0293ZM135.75 93.9593C135.75 93.6513 135.717 93.3573 135.652 93.0773C135.587 92.7973 135.484 92.55 135.344 92.3353C135.204 92.1206 135.027 91.9526 134.812 91.8313C134.607 91.7006 134.355 91.6353 134.056 91.6353C133.767 91.6353 133.515 91.7006 133.3 91.8313C133.085 91.9526 132.908 92.1206 132.768 92.3353C132.628 92.55 132.525 92.7973 132.46 93.0773C132.395 93.3573 132.362 93.6513 132.362 93.9593C132.362 94.258 132.395 94.5473 132.46 94.8273C132.525 95.1073 132.628 95.3546 132.768 95.5693C132.908 95.784 133.085 95.9566 133.3 96.0873C133.515 96.2086 133.767 96.2693 134.056 96.2693C134.355 96.2693 134.607 96.2086 134.812 96.0873C135.027 95.9566 135.204 95.784 135.344 95.5693C135.484 95.3546 135.587 95.1073 135.652 94.8273C135.717 94.5473 135.75 94.258 135.75 93.9593ZM130.444 87.5753H132.432V91.2153H132.46C132.703 90.842 133.029 90.5713 133.44 90.4033C133.86 90.226 134.294 90.1373 134.742 90.1373C135.106 90.1373 135.465 90.212 135.82 90.3613C136.175 90.5106 136.492 90.7393 136.772 91.0473C137.061 91.3553 137.295 91.752 137.472 92.2373C137.649 92.7133 137.738 93.2826 137.738 93.9453C137.738 94.608 137.649 95.182 137.472 95.6673C137.295 96.1433 137.061 96.5353 136.772 96.8433C136.492 97.1513 136.175 97.38 135.82 97.5293C135.465 97.6786 135.106 97.7533 134.742 97.7533C134.21 97.7533 133.734 97.6693 133.314 97.5013C132.894 97.3333 132.577 97.0486 132.362 96.6473H132.334V97.5713H130.444V87.5753ZM144.049 93.1753C143.956 92.6713 143.788 92.2886 143.545 92.0273C143.312 91.766 142.953 91.6353 142.467 91.6353C142.15 91.6353 141.884 91.6913 141.669 91.8033C141.464 91.906 141.296 92.0366 141.165 92.1953C141.044 92.354 140.955 92.522 140.899 92.6993C140.853 92.8766 140.825 93.0353 140.815 93.1753H144.049ZM140.815 94.4353C140.843 95.0793 141.007 95.546 141.305 95.8353C141.604 96.1246 142.033 96.2693 142.593 96.2693C142.995 96.2693 143.34 96.1713 143.629 95.9753C143.919 95.77 144.096 95.5553 144.161 95.3313H145.911C145.631 96.1993 145.202 96.82 144.623 97.1933C144.045 97.5666 143.345 97.7533 142.523 97.7533C141.954 97.7533 141.441 97.6646 140.983 97.4873C140.526 97.3006 140.139 97.0393 139.821 96.7033C139.504 96.3673 139.257 95.966 139.079 95.4993C138.911 95.0326 138.827 94.5193 138.827 93.9593C138.827 93.418 138.916 92.914 139.093 92.4473C139.271 91.9806 139.523 91.5793 139.849 91.2433C140.176 90.898 140.563 90.6273 141.011 90.4313C141.469 90.2353 141.973 90.1373 142.523 90.1373C143.139 90.1373 143.676 90.2586 144.133 90.5013C144.591 90.7346 144.964 91.052 145.253 91.4533C145.552 91.8546 145.767 92.312 145.897 92.8253C146.028 93.3386 146.075 93.8753 146.037 94.4353H140.815ZM147.448 87.5753H149.436V97.5713H147.448V87.5753Z" fill="black"/>
<mask id="path-6-inside-2_3328_10267" fill="white">
<path d="M179 92.5713C179 83.7347 186.163 76.5713 195 76.5713H233C241.837 76.5713 249 83.7347 249 92.5713C249 101.408 241.837 108.571 233 108.571H195C186.163 108.571 179 101.408 179 92.5713Z"/>
</mask>
<path d="M195 77.5713H233V75.5713H195V77.5713ZM233 107.571H195V109.571H233V107.571ZM195 107.571C186.716 107.571 180 100.856 180 92.5713H178C178 101.96 185.611 109.571 195 109.571V107.571ZM248 92.5713C248 100.856 241.284 107.571 233 107.571V109.571C242.389 109.571 250 101.96 250 92.5713H248ZM233 77.5713C241.284 77.5713 248 84.287 248 92.5713H250C250 83.1824 242.389 75.5713 233 75.5713V77.5713ZM195 75.5713C185.611 75.5713 178 83.1824 178 92.5713H180C180 84.287 186.716 77.5713 195 77.5713V75.5713Z" fill="black" fill-opacity="0.2" mask="url(#path-6-inside-2_3328_10267)"/>
<path d="M195.966 87.5753H198.164V95.7233H203.036V97.5713H195.966V87.5753ZM204.146 92.5593C204.174 92.0926 204.29 91.7053 204.496 91.3973C204.701 91.0893 204.962 90.842 205.28 90.6553C205.597 90.4686 205.952 90.338 206.344 90.2633C206.745 90.1793 207.146 90.1373 207.548 90.1373C207.912 90.1373 208.28 90.1653 208.654 90.2213C209.027 90.268 209.368 90.366 209.676 90.5153C209.984 90.6646 210.236 90.8746 210.432 91.1453C210.628 91.4066 210.726 91.7566 210.726 92.1953V95.9613C210.726 96.288 210.744 96.6006 210.782 96.8993C210.819 97.198 210.884 97.422 210.978 97.5713H208.962C208.924 97.4593 208.892 97.3473 208.864 97.2353C208.845 97.114 208.831 96.9926 208.822 96.8713C208.504 97.198 208.131 97.4266 207.702 97.5573C207.272 97.688 206.834 97.7533 206.386 97.7533C206.04 97.7533 205.718 97.7113 205.42 97.6273C205.121 97.5433 204.86 97.4126 204.636 97.2353C204.412 97.058 204.234 96.834 204.104 96.5633C203.982 96.2926 203.922 95.9706 203.922 95.5973C203.922 95.1866 203.992 94.8506 204.132 94.5893C204.281 94.3186 204.468 94.104 204.692 93.9453C204.925 93.7866 205.186 93.67 205.476 93.5953C205.774 93.5113 206.073 93.446 206.372 93.3993C206.67 93.3526 206.964 93.3153 207.254 93.2873C207.543 93.2593 207.8 93.2173 208.024 93.1613C208.248 93.1053 208.425 93.026 208.556 92.9233C208.686 92.8113 208.747 92.6526 208.738 92.4473C208.738 92.2326 208.7 92.0646 208.626 91.9433C208.56 91.8126 208.467 91.7146 208.346 91.6493C208.234 91.5746 208.098 91.528 207.94 91.5093C207.79 91.4813 207.627 91.4673 207.45 91.4673C207.058 91.4673 206.75 91.5513 206.526 91.7193C206.302 91.8873 206.171 92.1673 206.134 92.5593H204.146ZM208.738 94.0293C208.654 94.104 208.546 94.1646 208.416 94.2113C208.294 94.2486 208.159 94.2813 208.01 94.3093C207.87 94.3373 207.72 94.3606 207.562 94.3793C207.403 94.398 207.244 94.4213 207.086 94.4493C206.936 94.4773 206.787 94.5146 206.638 94.5613C206.498 94.608 206.372 94.6733 206.26 94.7573C206.157 94.832 206.073 94.93 206.008 95.0513C205.942 95.1726 205.91 95.3266 205.91 95.5133C205.91 95.6906 205.942 95.84 206.008 95.9613C206.073 96.0826 206.162 96.1806 206.274 96.2553C206.386 96.3206 206.516 96.3673 206.666 96.3953C206.815 96.4233 206.969 96.4373 207.128 96.4373C207.52 96.4373 207.823 96.372 208.038 96.2413C208.252 96.1106 208.411 95.9566 208.514 95.7793C208.616 95.5926 208.677 95.406 208.696 95.2193C208.724 95.0326 208.738 94.8833 208.738 94.7713V94.0293ZM217.75 93.9593C217.75 93.6513 217.717 93.3573 217.652 93.0773C217.587 92.7973 217.484 92.55 217.344 92.3353C217.204 92.1206 217.027 91.9526 216.812 91.8313C216.607 91.7006 216.355 91.6353 216.056 91.6353C215.767 91.6353 215.515 91.7006 215.3 91.8313C215.085 91.9526 214.908 92.1206 214.768 92.3353C214.628 92.55 214.525 92.7973 214.46 93.0773C214.395 93.3573 214.362 93.6513 214.362 93.9593C214.362 94.258 214.395 94.5473 214.46 94.8273C214.525 95.1073 214.628 95.3546 214.768 95.5693C214.908 95.784 215.085 95.9566 215.3 96.0873C215.515 96.2086 215.767 96.2693 216.056 96.2693C216.355 96.2693 216.607 96.2086 216.812 96.0873C217.027 95.9566 217.204 95.784 217.344 95.5693C217.484 95.3546 217.587 95.1073 217.652 94.8273C217.717 94.5473 217.75 94.258 217.75 93.9593ZM212.444 87.5753H214.432V91.2153H214.46C214.703 90.842 215.029 90.5713 215.44 90.4033C215.86 90.226 216.294 90.1373 216.742 90.1373C217.106 90.1373 217.465 90.212 217.82 90.3613C218.175 90.5106 218.492 90.7393 218.772 91.0473C219.061 91.3553 219.295 91.752 219.472 92.2373C219.649 92.7133 219.738 93.2826 219.738 93.9453C219.738 94.608 219.649 95.182 219.472 95.6673C219.295 96.1433 219.061 96.5353 218.772 96.8433C218.492 97.1513 218.175 97.38 217.82 97.5293C217.465 97.6786 217.106 97.7533 216.742 97.7533C216.21 97.7533 215.734 97.6693 215.314 97.5013C214.894 97.3333 214.577 97.0486 214.362 96.6473H214.334V97.5713H212.444V87.5753ZM226.049 93.1753C225.956 92.6713 225.788 92.2886 225.545 92.0273C225.312 91.766 224.953 91.6353 224.467 91.6353C224.15 91.6353 223.884 91.6913 223.669 91.8033C223.464 91.906 223.296 92.0366 223.165 92.1953C223.044 92.354 222.955 92.522 222.899 92.6993C222.853 92.8766 222.825 93.0353 222.815 93.1753H226.049ZM222.815 94.4353C222.843 95.0793 223.007 95.546 223.305 95.8353C223.604 96.1246 224.033 96.2693 224.593 96.2693C224.995 96.2693 225.34 96.1713 225.629 95.9753C225.919 95.77 226.096 95.5553 226.161 95.3313H227.911C227.631 96.1993 227.202 96.82 226.623 97.1933C226.045 97.5666 225.345 97.7533 224.523 97.7533C223.954 97.7533 223.441 97.6646 222.983 97.4873C222.526 97.3006 222.139 97.0393 221.821 96.7033C221.504 96.3673 221.257 95.966 221.079 95.4993C220.911 95.0326 220.827 94.5193 220.827 93.9593C220.827 93.418 220.916 92.914 221.093 92.4473C221.271 91.9806 221.523 91.5793 221.849 91.2433C222.176 90.898 222.563 90.6273 223.011 90.4313C223.469 90.2353 223.973 90.1373 224.523 90.1373C225.139 90.1373 225.676 90.2586 226.133 90.5013C226.591 90.7346 226.964 91.052 227.253 91.4533C227.552 91.8546 227.767 92.312 227.897 92.8253C228.028 93.3386 228.075 93.8753 228.037 94.4353H222.815ZM229.448 87.5753H231.436V97.5713H229.448V87.5753Z" fill="black"/>
</svg>
