<svg width="328" height="184" viewBox="0 0 328 184" fill="none" xmlns="http://www.w3.org/2000/svg">
<rect width="328" height="184" fill="white" fill-opacity="0.08"/>
<path d="M136 68C136 59.1634 143.163 52 152 52H176C184.837 52 192 59.1634 192 68C192 76.8366 184.837 84 176 84H152C143.163 84 136 76.8366 136 68Z" fill="#1ECD3C"/>
<g filter="url(#filter0_d_3328_10040)">
<path d="M164 68C164 61.3726 169.373 56 176 56C182.627 56 188 61.3726 188 68C188 74.6274 182.627 80 176 80C169.373 80 164 74.6274 164 68Z" fill="#141414" shape-rendering="crispEdges"/>
<path fill-rule="evenodd" clip-rule="evenodd" d="M181.292 65.0466C181.292 65.0466 181.292 65.0466 181.292 65.0467L175.223 72.0466C175.223 72.0466 175.223 72.0466 175.223 72.0466C175.223 72.0465 175.223 72.0466 175.223 72.0466C175.049 72.2467 174.782 72.375 174.482 72.375C174.183 72.375 173.916 72.2467 173.742 72.0466C173.742 72.0466 173.742 72.0465 173.742 72.0466C173.742 72.0466 173.742 72.0466 173.742 72.0465L170.707 68.5467C170.707 68.5466 170.707 68.5466 170.707 68.5466C170.707 68.5465 170.707 68.5465 170.707 68.5464C170.577 68.3967 170.5 68.2068 170.5 68C170.5 67.7584 170.606 67.5396 170.777 67.3813L171.157 67.0313C171.328 66.8729 171.565 66.775 171.827 66.775C172.063 66.775 172.278 66.8545 172.444 66.9858C172.444 66.9858 172.444 66.9858 172.444 66.9857C172.444 66.9857 172.444 66.9857 172.444 66.9857L173.44 68.0037C173.917 68.4911 174.693 68.5172 175.202 68.0628L179.903 63.8617C179.903 63.8617 179.903 63.8617 179.903 63.8617C179.903 63.8618 179.903 63.8618 179.903 63.8617C180.072 63.715 180.3 63.625 180.551 63.625C181.075 63.625 181.5 64.0168 181.5 64.5C181.5 64.7068 181.422 64.8967 181.292 65.0464C181.292 65.0465 181.292 65.0465 181.292 65.0466Z" fill="#EEEEEE"/>
</g>
<path d="M136 116C136 107.163 143.163 100 152 100H176C184.837 100 192 107.163 192 116C192 124.837 184.837 132 176 132H152C143.163 132 136 124.837 136 116Z" fill="white" fill-opacity="0.64"/>
<g filter="url(#filter1_d_3328_10040)">
<path d="M144 116C144 111.582 147.582 108 152 108C156.418 108 160 111.582 160 116C160 120.418 156.418 124 152 124C147.582 124 144 120.418 144 116Z" fill="#141414" shape-rendering="crispEdges"/>
</g>
<defs>
<filter id="filter0_d_3328_10040" x="162" y="55" width="28" height="28" filterUnits="userSpaceOnUse" color-interpolation-filters="sRGB">
<feFlood flood-opacity="0" result="BackgroundImageFix"/>
<feColorMatrix in="SourceAlpha" type="matrix" values="0 0 0 0 0 0 0 0 0 0 0 0 0 0 0 0 0 0 127 0" result="hardAlpha"/>
<feOffset dy="1"/>
<feGaussianBlur stdDeviation="1"/>
<feComposite in2="hardAlpha" operator="out"/>
<feColorMatrix type="matrix" values="0 0 0 0 0 0 0 0 0 0 0 0 0 0 0 0 0 0 0.32 0"/>
<feBlend mode="normal" in2="BackgroundImageFix" result="effect1_dropShadow_3328_10040"/>
<feBlend mode="normal" in="SourceGraphic" in2="effect1_dropShadow_3328_10040" result="shape"/>
</filter>
<filter id="filter1_d_3328_10040" x="142" y="107" width="20" height="20" filterUnits="userSpaceOnUse" color-interpolation-filters="sRGB">
<feFlood flood-opacity="0" result="BackgroundImageFix"/>
<feColorMatrix in="SourceAlpha" type="matrix" values="0 0 0 0 0 0 0 0 0 0 0 0 0 0 0 0 0 0 127 0" result="hardAlpha"/>
<feOffset dy="1"/>
<feGaussianBlur stdDeviation="1"/>
<feComposite in2="hardAlpha" operator="out"/>
<feColorMatrix type="matrix" values="0 0 0 0 0 0 0 0 0 0 0 0 0 0 0 0 0 0 0.32 0"/>
<feBlend mode="normal" in2="BackgroundImageFix" result="effect1_dropShadow_3328_10040"/>
<feBlend mode="normal" in="SourceGraphic" in2="effect1_dropShadow_3328_10040" result="shape"/>
</filter>
</defs>
</svg>
