<svg width="328" height="184" viewBox="0 0 328 184" fill="none" xmlns="http://www.w3.org/2000/svg">
<rect width="328" height="184" fill="white" fill-opacity="0.08"/>
<g clip-path="url(#clip0_3590_7421)">
<path d="M164.48 110.787C164.503 104.287 169.935 99.0672 176.515 99.0672H189.687C199.1 99.0672 205.998 90.2155 203.475 81.2556C201.609 74.6252 198.033 68.5856 193.097 63.7262C177.26 48.0886 151.689 48.0917 135.856 63.7329C120.048 79.3501 120.048 104.67 135.856 120.287C147.15 131.444 163.456 134.63 177.613 129.846C181.644 128.484 180.647 122.591 176.386 122.591C173.22 122.59 170.184 121.344 167.95 119.129C165.716 116.915 164.468 113.913 164.48 110.787ZM179.762 66.1372C182.207 66.0565 184.452 67.4584 185.426 69.6728C186.4 71.8872 185.904 74.4642 184.176 76.1719C182.447 77.8795 179.837 78.3709 177.593 77.4111C175.349 76.4513 173.928 74.2353 174.008 71.8225C174.109 68.7267 176.627 66.2399 179.762 66.1372ZM133.528 88.6741C133.449 86.2637 134.871 84.0508 137.113 83.0927C139.354 82.1346 141.962 82.6259 143.688 84.3317C145.415 86.0375 145.911 88.6116 144.939 90.8241C143.967 93.0365 141.725 94.4382 139.283 94.3594C136.147 94.257 133.629 91.77 133.528 88.6741ZM142.054 110.826C139.609 110.907 137.364 109.505 136.39 107.29C135.416 105.076 135.912 102.499 137.64 100.791C139.369 99.0838 141.979 98.5923 144.223 99.552C146.466 100.512 147.888 102.728 147.808 105.14C147.707 108.236 145.19 110.723 142.054 110.826ZM146.816 77.893C144.372 77.9738 142.126 76.5719 141.152 74.3575C140.178 72.1431 140.674 69.5661 142.403 67.8585C144.131 66.1508 146.741 65.6593 148.985 66.619C151.229 67.5787 152.651 69.7947 152.571 72.2074C152.469 75.3032 149.952 77.7904 146.816 77.893ZM163.484 70.8359C161.04 70.9165 158.794 69.5144 157.821 67.3C156.847 65.0856 157.343 62.5086 159.071 60.8011C160.8 59.0935 163.41 58.6022 165.654 59.5621C167.898 60.5219 169.319 62.7378 169.239 65.1506C169.138 68.2465 166.62 70.7335 163.484 70.8359Z" fill="#EEEEEE"/>
</g>
<defs>
<clipPath id="clip0_3590_7421">
<rect width="80" height="80" fill="white" transform="translate(124 52)"/>
</clipPath>
</defs>
</svg>
