<svg width="17" height="17" viewBox="0 0 17 17" fill="none" xmlns="http://www.w3.org/2000/svg">
<path fill-rule="evenodd" clip-rule="evenodd" d="M13.7917 5.54661L7.72275 12.5466C7.54898 12.7468 7.28183 12.875 6.98227 12.875C6.68269 12.875 6.41573 12.7467 6.24194 12.5465L3.20731 9.04661C3.0773 8.89683 2.99951 8.70683 2.99951 8.5C2.99951 8.25837 3.10564 8.03964 3.27724 7.88129L3.65657 7.53129C3.82817 7.37293 4.06524 7.275 4.3271 7.275C4.56276 7.275 4.77822 7.35452 4.94407 7.48583L6.79261 9.37502L12.4027 4.36167C12.5723 4.21488 12.8004 4.125 13.0512 4.125C13.5749 4.125 13.9995 4.51676 13.9995 5.00002C13.9995 5.20681 13.9217 5.39683 13.7917 5.54661Z" fill="#F15E00"/>
</svg>
