<svg width="24" height="24" viewBox="0 0 24 24" fill="none" xmlns="http://www.w3.org/2000/svg">
<path fill-rule="evenodd" clip-rule="evenodd" d="M17.4125 8.96223L11.2056 16.1623C11.0279 16.3681 10.7546 16.5 10.4483 16.5C10.1419 16.5 9.86886 16.368 9.69112 16.1621L6.58753 12.5622C6.45456 12.4082 6.375 12.2127 6.375 12C6.375 11.7515 6.48354 11.5265 6.65904 11.3636L7.04699 11.0036C7.22249 10.8407 7.46495 10.74 7.73276 10.74C7.97378 10.74 8.19413 10.8218 8.36375 10.9569L10.2543 12.9L15.9919 7.74343C16.1653 7.59245 16.3986 7.5 16.6551 7.5C17.1908 7.5 17.625 7.90295 17.625 8.40002C17.625 8.61272 17.5454 8.80817 17.4125 8.96223Z" fill="black"/>
</svg>
