<svg xmlns="http://www.w3.org/2000/svg" width="24" height="24" fill="currentColor" viewBox="0 0 24 24">
  <path fill-rule="evenodd" d="M6.904 17.087a.602.602 0 0 0-.848 0L4.783 18.36a.6.6 0 0 0 .849.848l1.272-1.272a.602.602 0 0 0 0-.85ZM17.087 6.905a.602.602 0 0 0 .848 0l1.273-1.273a.6.6 0 0 0-.848-.849l-1.273 1.273a.602.602 0 0 0 0 .849Zm.848 10.182a.602.602 0 0 0-.848 0 .602.602 0 0 0 0 .849l1.273 1.272a.6.6 0 0 0 .848-.848l-1.273-1.273ZM6.056 6.905a.602.602 0 0 0 .848 0 .602.602 0 0 0 0-.849L5.632 4.783a.6.6 0 0 0-.849.849l1.273 1.273Zm-1.26 5.09a.602.602 0 0 0-.6-.6h-1.8a.6.6 0 1 0 0 1.2h1.8a.602.602 0 0 0 .6-.6Zm16.8-.6h-1.8a.6.6 0 1 0 0 1.2h1.8a.6.6 0 0 0 0-1.2Zm-9.6 7.8a.602.602 0 0 0-.6.6v1.8a.6.6 0 0 0 1.2 0v-1.8a.602.602 0 0 0-.6-.6Zm0-14.4a.602.602 0 0 0 .6-.6v-1.8a.6.6 0 0 0-1.2 0v1.8a.6.6 0 0 0 .6.6Zm0 1.2a6 6 0 1 0 0 12 6 6 0 0 0 0-12Z" clip-rule="evenodd"/>
</svg>
